<svg xmlns="http://www.w3.org/2000/svg" xmlns:xlink="http://www.w3.org/1999/xlink" xmlns:lucid="lucid" width="1317.13" height="2065.67"><g transform="translate(-89.99999999999989 -180)" lucid:page-tab-id="0_0"><path d="M723.75 325c0-2.76 2.24-5 5-5H985c2.76 0 5 2.24 5 5v50c0 2.76-2.24 5-5 5H728.75c-2.76 0-5-2.24-5-5z" fill="none"/><use xlink:href="#a" transform="matrix(1,0,0,1,723.7512006624493,320) translate(0.4283888888888896 14.444444444444443)"/><use xlink:href="#b" transform="matrix(1,0,0,1,723.7512006624493,320) translate(50.508635802469136 14.444444444444443)"/><use xlink:href="#c" transform="matrix(1,0,0,1,723.7512006624493,320) translate(108.36666049382717 14.444444444444443)"/><use xlink:href="#d" transform="matrix(1,0,0,1,723.7512006624493,320) translate(142.07036419753086 14.444444444444443)"/><use xlink:href="#e" transform="matrix(1,0,0,1,723.7512006624493,320) translate(158.44690740740742 14.444444444444443)"/><use xlink:href="#f" transform="matrix(1,0,0,1,723.7512006624493,320) translate(237.86666049382717 14.444444444444443)"/><use xlink:href="#g" transform="matrix(1,0,0,1,723.7512006624493,320) translate(60.56172839506173 33.111111111111114)"/><use xlink:href="#h" transform="matrix(1,0,0,1,723.7512006624493,320) translate(146.03086419753086 33.111111111111114)"/><use xlink:href="#i" transform="matrix(1,0,0,1,723.7512006624493,320) translate(28.780864197530853 51.777777777777786)"/><use xlink:href="#j" transform="matrix(1,0,0,1,723.7512006624493,320) translate(143.89197530864197 51.777777777777786)"/><use xlink:href="#k" transform="matrix(1,0,0,1,723.7512006624493,320) translate(165.49691358024694 51.777777777777786)"/><path d="M209.75 519.75c0 10.9-8.84 19.75-19.75 19.75-10.9 0-19.75-8.84-19.75-19.75 0-10.9 8.84-19.75 19.75-19.75 10.9 0 19.75 8.84 19.75 19.75z" stroke="#666" fill="#fff"/><path d="M150 505c0-2.76 2.24-5 5-5h70c2.76 0 5 2.24 5 5v148c0 2.76-2.24 5-5 5h-70c-2.76 0-5-2.24-5-5z" fill="none"/><path d="M190 539.5v50.3c0 2.76 1.2 6.9 2.67 9.22L230 658m-40-63.2L150 658m0-98.75h80" stroke="#666" fill="none"/><use xlink:href="#l" transform="matrix(1,0,0,1,69.99999999999989,658) translate(80.62900617283951 24.444444444444446)"/><use xlink:href="#m" transform="matrix(1,0,0,1,69.99999999999989,658) translate(125.56727777777778 24.444444444444446)"/><path d="M239.75 939.75c0 10.9-8.84 19.75-19.75 19.75-10.9 0-19.75-8.84-19.75-19.75 0-10.9 8.84-19.75 19.75-19.75 10.9 0 19.75 8.84 19.75 19.75z" stroke="#666" fill="#fff"/><path d="M180 925c0-2.76 2.24-5 5-5h70c2.76 0 5 2.24 5 5v148c0 2.76-2.24 5-5 5h-70c-2.76 0-5-2.24-5-5z" fill="none"/><path d="M220 959.5v50.3c0 2.76 1.2 6.9 2.67 9.22L260 1078m-40-63.2l-40 63.2m0-98.75h80" stroke="#666" fill="none"/><use xlink:href="#n" transform="matrix(1,0,0,1,100,1078) translate(55.610487654320984 24.444444444444446)"/><use xlink:href="#m" transform="matrix(1,0,0,1,100,1078) translate(150.5857962962963 24.444444444444446)"/><path d="M1359.75 1719.75c0 10.9-8.84 19.75-19.75 19.75-10.9 0-19.75-8.84-19.75-19.75 0-10.9 8.84-19.75 19.75-19.75 10.9 0 19.75 8.84 19.75 19.75z" stroke="#666" fill="#fff"/><path d="M1300 1705c0-2.76 2.24-5 5-5h70c2.76 0 5 2.24 5 5v148c0 2.76-2.24 5-5 5h-70c-2.76 0-5-2.24-5-5z" fill="none"/><path d="M1340 1739.5v50.3c0 2.76 1.2 6.9 2.67 9.22L1380 1858m-40-63.2l-40 63.2m0-98.75h80" stroke="#666" fill="none"/><use xlink:href="#o" transform="matrix(1,0,0,1,1220,1858) translate(84.0857962962963 24.444444444444446)"/><path d="M1359.75 1259.75c0 10.9-8.84 19.75-19.75 19.75-10.9 0-19.75-8.84-19.75-19.75 0-10.9 8.84-19.75 19.75-19.75 10.9 0 19.75 8.84 19.75 19.75z" stroke="#666" fill="#fff"/><path d="M1300 1245c0-2.76 2.24-5 5-5h70c2.76 0 5 2.24 5 5v148c0 2.76-2.24 5-5 5h-70c-2.76 0-5-2.24-5-5z" fill="none"/><path d="M1340 1279.5v50.3c0 2.76 1.2 6.9 2.67 9.22L1380 1398m-40-63.2l-40 63.2m0-98.75h80" stroke="#666" fill="none"/><use xlink:href="#p" transform="matrix(1,0,0,1,1220,1398) translate(83.2215987654321 24.444444444444446)"/><path d="M1359.75 2039.75c0 10.9-8.84 19.75-19.75 19.75-10.9 0-19.75-8.84-19.75-19.75 0-10.9 8.84-19.75 19.75-19.75 10.9 0 19.75 8.84 19.75 19.75z" stroke="#666" fill="#fff"/><path d="M1300 2025c0-2.76 2.24-5 5-5h70c2.76 0 5 2.24 5 5v148c0 2.76-2.24 5-5 5h-70c-2.76 0-5-2.24-5-5z" fill="none"/><path d="M1340 2059.5v50.3c0 2.76 1.2 6.9 2.67 9.22L1380 2178m-40-63.2l-40 63.2m0-98.75h80" stroke="#666" fill="none"/><use xlink:href="#q" transform="matrix(1,0,0,1,1220,2178) translate(68.96233950617284 24.444444444444446)"/><use xlink:href="#r" transform="matrix(1,0,0,1,1220,2178) translate(75.12654320987656 43.111111111111114)"/><path d="M930 260c0 33.14-35.82 60-80 60s-80-26.86-80-60 35.82-60 80-60 80 26.86 80 60z" stroke="#000" stroke-opacity="0" fill="#dedffc"/><use xlink:href="#s" transform="matrix(1,0,0,1,770,200) translate(18.57999999999999 63.15)"/><path d="M580 540c0 33.14-35.82 60-80 60s-80-26.86-80-60 35.82-60 80-60 80 26.86 80 60z" stroke="#000" stroke-opacity="0" fill="#dedffc"/><use xlink:href="#t" transform="matrix(1,0,0,1,420,480) translate(79.505 22.076666666666668)"/><use xlink:href="#u" transform="matrix(1,0,0,1,420,480) translate(24.920930925925926 47.67666666666668)"/><use xlink:href="#v" transform="matrix(1,0,0,1,420,480) translate(30.846856851851854 47.67666666666668)"/><use xlink:href="#w" transform="matrix(1,0,0,1,420,480) translate(103.58282462962964 47.67666666666668)"/><use xlink:href="#x" transform="matrix(1,0,0,1,420,480) translate(38.23206555555554 73.27666666666667)"/><path d="M820 540c0 33.14-35.82 60-80 60s-80-26.86-80-60 35.82-60 80-60 80 26.86 80 60z" stroke="#000" stroke-opacity="0" fill="#dedffc"/><use xlink:href="#y" transform="matrix(1,0,0,1,660.0000000000001,480) translate(20.794988888888874 53.14448)"/><use xlink:href="#w" transform="matrix(1,0,0,1,660.0000000000001,480) translate(107.70876666666668 53.14448)"/><use xlink:href="#z" transform="matrix(1,0,0,1,660.0000000000001,480) translate(44.20738777777777 76.6112)"/><path d="M1060 540c0 33.14-35.82 60-80 60s-80-26.86-80-60 35.82-60 80-60 80 26.86 80 60z" stroke="#000" stroke-opacity="0" fill="#dedffc"/><use xlink:href="#t" transform="matrix(1,0,0,1,900.0000000000002,480) translate(79.505 22.076666666666668)"/><use xlink:href="#u" transform="matrix(1,0,0,1,900.0000000000002,480) translate(29.80983092592592 47.67666666666668)"/><use xlink:href="#v" transform="matrix(1,0,0,1,900.0000000000002,480) translate(35.735756851851846 47.67666666666668)"/><use xlink:href="#A" transform="matrix(1,0,0,1,900.0000000000002,480) translate(108.47172462962963 47.67666666666668)"/><use xlink:href="#B" transform="matrix(1,0,0,1,900.0000000000002,480) translate(29.62216944444443 73.27666666666667)"/><use xlink:href="#C" transform="matrix(1,0,0,1,900.0000000000002,480) translate(50.20987055555555 73.27666666666667)"/><path d="M1318.3 540c0 33.14-35.8 60-80 60-44.17 0-80-26.86-80-60s35.83-60 80-60c44.2 0 80 26.86 80 60z" stroke="#000" stroke-opacity="0" fill="#dedffc"/><use xlink:href="#t" transform="matrix(1,0,0,1,1158.3142500092629,480) translate(79.505 22.076666666666668)"/><use xlink:href="#u" transform="matrix(1,0,0,1,1158.3142500092629,480) translate(34.20984092592592 47.67666666666668)"/><use xlink:href="#D" transform="matrix(1,0,0,1,1158.3142500092629,480) translate(40.13576685185185 47.67666666666668)"/><use xlink:href="#E" transform="matrix(1,0,0,1,1158.3142500092629,480) translate(15.987570555555545 73.27666666666667)"/><use xlink:href="#F" transform="matrix(1,0,0,1,1158.3142500092629,480) translate(52.9259261111111 73.27666666666667)"/><path d="M580 960c0 33.14-35.82 60-80 60s-80-26.86-80-60 35.82-60 80-60 80 26.86 80 60z" stroke="#000" stroke-opacity="0" fill="#dedffc"/><use xlink:href="#G" transform="matrix(1,0,0,1,420,900) translate(23.192536481481465 47.06666666666667)"/><use xlink:href="#v" transform="matrix(1,0,0,1,420,900) translate(32.57525129629628 47.06666666666667)"/><use xlink:href="#w" transform="matrix(1,0,0,1,420,900) translate(105.31121907407407 47.06666666666667)"/><use xlink:href="#H" transform="matrix(1,0,0,1,420,900) translate(24.108576666666657 72.66666666666669)"/><path d="M780 960c0 33.14-35.82 60-80 60s-80-26.86-80-60 35.82-60 80-60 80 26.86 80 60z" stroke="#000" stroke-opacity="0" fill="#dedffc"/><use xlink:href="#t" transform="matrix(1,0,0,1,620,900) translate(79.505 22.076666666666668)"/><use xlink:href="#u" transform="matrix(1,0,0,1,620,900) translate(24.920930925925926 47.67666666666668)"/><use xlink:href="#v" transform="matrix(1,0,0,1,620,900) translate(30.846856851851854 47.67666666666668)"/><use xlink:href="#w" transform="matrix(1,0,0,1,620,900) translate(103.58282462962964 47.67666666666668)"/><use xlink:href="#I" transform="matrix(1,0,0,1,620,900) translate(31.686371666666652 71.85448000000001)"/><use xlink:href="#A" transform="matrix(1,0,0,1,620,900) translate(106.5951838888889 71.85448000000001)"/><use xlink:href="#J" transform="matrix(1,0,0,1,620,900) translate(49.12344833333333 96.74338666666668)"/><path d="M1150 960c0 33.14-35.82 60-80 60s-80-26.86-80-60 35.82-60 80-60 80 26.86 80 60z" stroke="#000" stroke-opacity="0" fill="#dedffc"/><use xlink:href="#K" transform="matrix(1,0,0,1,990,900) translate(36.00489999999999 49.39448)"/><use xlink:href="#w" transform="matrix(1,0,0,1,990,900) translate(92.49885555555556 49.39448)"/><use xlink:href="#L" transform="matrix(1,0,0,1,990,900) translate(48.49875555555555 74.28338666666667)"/><path d="M1343.88 960c0 33.14-35.82 60-80 60s-80-26.86-80-60 35.82-60 80-60 80 26.86 80 60z" stroke="#000" stroke-opacity="0" fill="#dedffc"/><use xlink:href="#M" transform="matrix(1,0,0,1,1183.8813961724534,900) translate(17.101153333333322 53.14448)"/><use xlink:href="#w" transform="matrix(1,0,0,1,1183.8813961724534,900) translate(111.40260222222223 53.14448)"/><use xlink:href="#N" transform="matrix(1,0,0,1,1183.8813961724534,900) translate(29.54068777777777 76.6112)"/><use xlink:href="#O" transform="matrix(1,0,0,1,1183.8813961724534,900) translate(84.8939 76.6112)"/><path d="M960 960c0 33.14-35.82 60-80 60s-80-26.86-80-60 35.82-60 80-60 80 26.86 80 60z" stroke="#000" stroke-opacity="0" fill="#dedffc"/><use xlink:href="#P" transform="matrix(1,0,0,1,800,900) translate(32.28390388888889 49.39448)"/><use xlink:href="#E" transform="matrix(1,0,0,1,800,900) translate(42.00738277777777 74.28338666666667)"/><use xlink:href="#Q" transform="matrix(1,0,0,1,800,900) translate(78.94573833333334 74.28338666666667)"/><path d="M624.16 2020c0 33.14-35.82 60-80 60-44.2 0-80-26.86-80-60s35.8-60 80-60c44.18 0 80 26.86 80 60z" stroke="#000" stroke-opacity="0" fill="#dedffc"/><use xlink:href="#R" transform="matrix(1,0,0,1,464.15712500463155,1960) translate(17.590043333333323 49.39448)"/><use xlink:href="#w" transform="matrix(1,0,0,1,464.15712500463155,1960) translate(110.91371222222223 49.39448)"/><use xlink:href="#S" transform="matrix(1,0,0,1,464.15712500463155,1960) translate(44.20738777777777 74.28338666666667)"/><path d="M1015.84 2020c0 33.14-35.8 60-80 60-44.18 0-80-26.86-80-60s35.82-60 80-60c44.2 0 80 26.86 80 60z" stroke="#000" stroke-opacity="0" fill="#dedffc"/><use xlink:href="#u" transform="matrix(1,0,0,1,855.8428749953687,1960) translate(24.92093092592592 50.81666666666667)"/><use xlink:href="#v" transform="matrix(1,0,0,1,855.8428749953687,1960) translate(30.846856851851847 50.81666666666667)"/><use xlink:href="#w" transform="matrix(1,0,0,1,855.8428749953687,1960) translate(103.58282462962964 50.81666666666667)"/><use xlink:href="#T" transform="matrix(1,0,0,1,855.8428749953687,1960) translate(48.49875555555555 76.41666666666669)"/><path d="M891.7 1395c0 41.42-44.8 75-100 75-55.24 0-100-33.58-100-75s44.76-75 100-75c55.2 0 100 33.58 100 75z" stroke="#000" stroke-opacity="0" fill="#dedffc"/><use xlink:href="#U" transform="matrix(1,0,0,1,691.6857499907372,1320) translate(31.09867055555555 67.20698)"/><use xlink:href="#w" transform="matrix(1,0,0,1,691.6857499907372,1320) translate(137.405085 67.20698)"/><use xlink:href="#V" transform="matrix(1,0,0,1,691.6857499907372,1320) translate(44.10857666666666 92.09588666666667)"/><path d="M501.7 1720c0 33.14-35.83 60-80 60-44.2 0-80-26.86-80-60s35.8-60 80-60c44.17 0 80 26.86 80 60z" stroke="#000" stroke-opacity="0" fill="#dedffc"/><use xlink:href="#W" transform="matrix(1,0,0,1,341.6857499907371,1660) translate(25.765370555555545 49.39448)"/><use xlink:href="#X" transform="matrix(1,0,0,1,341.6857499907371,1660) translate(33.34316555555555 74.28338666666667)"/><use xlink:href="#Y" transform="matrix(1,0,0,1,341.6857499907371,1660) translate(60.50372111111111 74.28338666666667)"/><path d="M930 1730c0 38.66-76.1 70-170 70s-170-31.34-170-70 76.1-70 170-70 170 31.34 170 70z" stroke="#000" stroke-opacity="0" fill="#dedffc"/><use xlink:href="#u" transform="matrix(1,0,0,1,589.9999999999998,1660) translate(31.347901481481454 60.81666666666667)"/><use xlink:href="#Z" transform="matrix(1,0,0,1,589.9999999999998,1660) translate(37.27382740740738 60.81666666666667)"/><use xlink:href="#E" transform="matrix(1,0,0,1,589.9999999999998,1660) translate(143.58024185185184 60.81666666666667)"/><use xlink:href="#aa" transform="matrix(1,0,0,1,589.9999999999998,1660) translate(180.51859740740738 60.81666666666667)"/><use xlink:href="#w" transform="matrix(1,0,0,1,589.9999999999998,1660) translate(277.1558540740741 60.81666666666667)"/><use xlink:href="#ab" transform="matrix(1,0,0,1,589.9999999999998,1660) translate(54.46399666666663 86.41666666666669)"/><use xlink:href="#ac" transform="matrix(1,0,0,1,589.9999999999998,1660) translate(155.44694222222222 86.41666666666669)"/><path d="M1140 1520c0 33.14-35.82 60-80 60s-80-26.86-80-60 35.82-60 80-60 80 26.86 80 60z" stroke="#000" stroke-opacity="0" fill="#dedffc"/><use xlink:href="#t" transform="matrix(1,0,0,1,980,1460) translate(79.505 22.076666666666668)"/><use xlink:href="#u" transform="matrix(1,0,0,1,980,1460) translate(26.604885370370365 47.67666666666668)"/><use xlink:href="#ad" transform="matrix(1,0,0,1,980,1460) translate(32.53081129629629 47.67666666666668)"/><use xlink:href="#E" transform="matrix(1,0,0,1,980,1460) translate(15.987570555555545 73.27666666666667)"/><use xlink:href="#ae" transform="matrix(1,0,0,1,980,1460) translate(52.9259261111111 73.27666666666667)"/><path d="M190.52 590h35c2.76 0 5-2.24 5-5V445c0-2.76 2.24-5 5-5H495c2.76 0 5 2.24 5 5v16.76M190.52 590h-3" stroke="#999" stroke-width="2" fill="none"/><path d="M500 476.76l-4.64-14.26h9.28z" fill="#999"/><path d="M500 480l-6-18.5h12zm-3.26-16.5l3.26 10.03 3.26-10.03z" fill="#999"/><path d="M190.52 590h35c2.76 0 5-2.24 5-5V445c0-2.76 2.24-5 5-5H735c2.76 0 5 2.24 5 5v16.76M190.52 590h-3" stroke="#999" stroke-width="2" fill="none"/><path d="M740 476.76l-4.64-14.26h9.28z" fill="#999"/><path d="M740 480l-6-18.5h12zm-3.26-16.5l3.26 10.03 3.26-10.03z" fill="#999"/><path d="M190.52 590h35c2.76 0 5-2.24 5-5V445c0-2.76 2.24-5 5-5H975c2.76 0 5 2.24 5 5v16.76M190.52 590h-3" stroke="#999" stroke-width="2" fill="none"/><path d="M980 476.76l-4.64-14.26h9.28z" fill="#999"/><path d="M980 480l-6-18.5h12zm-3.26-16.5l3.26 10.03 3.26-10.03z" fill="#999"/><path d="M190.52 590h35c2.76 0 5-2.24 5-5V445c0-2.76 2.24-5 5-5h997.8c2.76 0 5 2.24 5 5v16.76M190.52 590h-3" stroke="#999" stroke-width="2" fill="none"/><path d="M1238.3 476.76l-4.62-14.26h9.27z" fill="#999"/><path d="M1238.3 480l-6-18.5h12.03zm-3.24-16.5l3.25 10.03 3.27-10.03z" fill="#999"/><path d="M220.52 1010h35c2.76 0 5-2.24 5-5V865c0-2.76 2.24-5 5-5H495c2.76 0 5 2.24 5 5v16.76M220.52 1010h-3" stroke="#999" stroke-width="2" fill="none"/><path d="M500 896.76l-4.64-14.26h9.28z" fill="#999"/><path d="M500 900l-6-18.5h12zm-3.26-16.5l3.26 10.03 3.26-10.03z" fill="#999"/><path d="M220.52 1010h35c2.76 0 5-2.24 5-5V865c0-2.76 2.24-5 5-5H695c2.76 0 5 2.24 5 5v16.76M220.52 1010h-3" stroke="#999" stroke-width="2" fill="none"/><path d="M700 896.76l-4.64-14.26h9.28z" fill="#999"/><path d="M700 900l-6-18.5h12zm-3.26-16.5l3.26 10.03 3.26-10.03z" fill="#999"/><path d="M220.52 1010h35c2.76 0 5-2.24 5-5V865c0-2.76 2.24-5 5-5H875c2.76 0 5 2.24 5 5v16.76M220.52 1010h-3" stroke="#999" stroke-width="2" fill="none"/><path d="M880 896.76l-4.64-14.26h9.28z" fill="#999"/><path d="M880 900l-6-18.5h12zm-3.26-16.5l3.26 10.03 3.26-10.03z" fill="#999"/><path d="M220.52 1010h35c2.76 0 5-2.24 5-5V865c0-2.76 2.24-5 5-5H1065c2.76 0 5 2.24 5 5v16.76M220.52 1010h-3" stroke="#999" stroke-width="2" fill="none"/><path d="M1070 896.76l-4.64-14.26h9.28z" fill="#999"/><path d="M1070 900l-6-18.5h12zm-3.26-16.5l3.26 10.03 3.26-10.03z" fill="#999"/><path d="M220.52 1010h35c2.76 0 5-2.24 5-5V865c0-2.76 2.24-5 5-5h993.36c2.76 0 5 2.24 5 5v16.76M220.52 1010h-3" stroke="#999" stroke-width="2" fill="none"/><path d="M1263.88 896.76l-4.63-14.26h9.27z" fill="#999"/><path d="M1263.88 900l-6-18.5h12zm-3.26-16.5l3.26 10.03 3.26-10.03z" fill="#999"/><path d="M1339.5 1330h-35c-2.75 0-5-2.24-5-5v-40c0-2.76-2.22-5-5-5H796.7c-2.78 0-5 2.24-5 5v16.76M1339.5 1330h3" stroke="#999" stroke-width="2" fill="none"/><path d="M791.7 1316.76l-4.65-14.26h9.27z" fill="#999"/><path d="M791.7 1320l-6.03-18.5h12.03zm-3.27-16.5l3.26 10.03 3.24-10.03z" fill="#999"/><path d="M1339.5 1790H1305c-2.76 0-5-2.24-5-5v-160c0-2.76-2.24-5-5-5h-230c-2.76 0-5-2.24-5-5v-16.76M1339.5 1790h3" stroke="#999" stroke-width="2" fill="none"/><path d="M1064.64 1597.5h-9.28l4.64-14.26z" fill="#999"/><path d="M1066 1598.5h-12l6-18.5zm-9.26-2h6.52l-3.26-10.03z" fill="#999"/><path d="M1339.5 1790h-35c-2.75 0-5-2.24-5-5v-160c0-2.76-2.22-5-5-5H765c-2.76 0-5 2.24-5 5v16.76M1339.5 1790h3" stroke="#999" stroke-width="2" fill="none"/><path d="M760 1656.76l-4.64-14.26h9.28z" fill="#999"/><path d="M760 1660l-6-18.5h12zm-3.26-16.5l3.26 10.03 3.26-10.03z" fill="#999"/><path d="M1339.5 1790h-35c-2.75 0-5-2.24-5-5v-160c0-2.76-2.22-5-5-5H426.7c-2.78 0-5 2.24-5 5v16.76M1339.5 1790h3" stroke="#999" stroke-width="2" fill="none"/><path d="M421.7 1656.76l-4.65-14.26h9.27z" fill="#999"/><path d="M421.7 1660l-6.03-18.5h12.03zm-3.27-16.5l3.26 10.03 3.24-10.03z" fill="#999"/><path d="M1339.5 2110h-35c-2.75 0-5-2.24-5-5v-180c0-2.76-2.22-5-5-5H940.85c-2.76 0-5 2.24-5 5v16.76M1339.5 2110h3" stroke="#999" stroke-width="2" fill="none"/><path d="M935.84 1956.76l-4.63-14.26h9.28z" fill="#999"/><path d="M935.84 1960l-6-18.5h12zm-3.26-16.5l3.26 10.03 3.26-10.03z" fill="#999"/><path d="M1339.5 2110h-35c-2.75 0-5-2.24-5-5v-180c0-2.76-2.22-5-5-5H549.17c-2.76 0-5 2.24-5 5v16.76M1339.5 2110h3" stroke="#999" stroke-width="2" fill="none"/><path d="M544.16 1956.76l-4.64-14.26h9.27z" fill="#999"/><path d="M544.16 1960l-6-18.5h12zm-3.26-16.5l3.26 10.03 3.26-10.03z" fill="#999"/><path d="M1340 2019.5v-115.54" stroke="#999" stroke-width="2" fill="none"/><path d="M1341 2020h-2v-.5h2z" fill="#999"/><path d="M1352.73 1903.48h-25.46l12.73-21.52z" fill="#fff"/><path d="M1354.48 1904.48h-28.96L1340 1880zm-25.45-2h21.94l-10.97-18.55z" fill="#999"/><path d="M270 1720c0 33.14-35.82 60-80 60s-80-26.86-80-60 35.82-60 80-60 80 26.86 80 60z" stroke="#000" stroke-opacity="0" fill="#dedffc"/><g><use xlink:href="#af" transform="matrix(1,0,0,1,109.99999999999989,1660) translate(19.104999999999997 51.9)"/><use xlink:href="#ag" transform="matrix(1,0,0,1,109.99999999999989,1660) translate(22.104999999999997 73.5)"/><use xlink:href="#ah" transform="matrix(1,0,0,1,109.99999999999989,1660) translate(63.055 73.5)"/></g><path d="M1339.5 1790h-35c-2.75 0-5-2.24-5-5v-160c0-2.76-2.22-5-5-5H195c-2.76 0-5 2.24-5 5v16.76M1339.5 1790h3" stroke="#999" stroke-width="2" fill="none"/><path d="M190 1656.76l-4.64-14.26h9.28z" fill="#999"/><path d="M190 1660l-6-18.5h12zm-3.26-16.5l3.26 10.03 3.26-10.03zM689.72 1396h-10.26v-2h10.26zm-20.52 0h-20.53v-2h20.53zm-30.8 0h-20.5v-2h20.5zm-30.78 0H587.1v-2h20.52zM501 1389.92l.2 1.26 1.46 2 2.5.82h9.4v2h-9.72l-3.4-1.1-2.13-2.92-.3-1.9v-10.36h2zm75.84 6.08h-13.12v-2h13.12zM501 1369.44h-2v-20.55h2zm0-30.83h-2v-20.54h2zm0-30.82h-2v-20.56h2zm0-30.84h-2v-20.55h2zm0-30.83h-2v-20.54h2zm0-30.82h-2v-20.56h2zm0-30.84h-2v-20.55h2zm0-30.83h-2v-20.54h2zm0-30.82h-2v-20.56h2zm0-30.84h-2v-20.55h2zm0-30.83h-2v-20.54h2zm0-30.82h-2V1020h2z" fill="#999"/><path d="M691.7 1395L673 1406.04l-1.02-1.72 15.76-9.32-15.76-9.32 1.02-1.72zM501 1020h-1 .9zm-2 0h1z" fill="#999"/><g><use xlink:href="#ai" transform="matrix(1,0,0,1,514.5512502309099,1385.6666666666667) translate(-5.705500000000001 12.444444444444446)"/></g><path d="M981 955.08l-.3 1.9-2.13 2.9-3.4 1.12H960v-2h14.84l2.5-.82 1.46-2 .2-1.26v-9.73h2zm0-19.7h-2v-19.6h2zm0-29.4h-2v-19.63h2zm0-29.43h-2v-19.62h2zm0-29.42h-2V827.5h2zm0-29.42h-2v-19.6h2zm0-29.4h-2v-19.62h2zm0-29.43h-2v-19.6h2zm0-29.42h-2v-19.6h2zm0-29.42h-2v-9.5h2zm0-29.42h-2V651h2zm0-29.4h-2v-19.62h2zm0-29.43h-2v-9.8h2zM960 959.62V961l-.03-2z" fill="#999"/><path d="M991.04 618.67l-1.72 1.02-9.32-15.77-9.32 15.76-1.72-1.03L980 600z" fill="#999"/><g><use xlink:href="#ai" transform="matrix(1,0,0,1,955.4135802469139,671.8515736357945) translate(-5.705500000000001 12.444444444444446)"/></g><path d="M981 955.08l-.3 1.9-2.13 2.9-3.4 1.12H960v-2h14.84l2.5-.82 1.46-2 .2-1.26v-10.75h2zm0-21.75h-2v-21.66h2zm0-32.5h-2v-21.66h2zm0-32.5h-2v-21.66h2zM995.35 821h-10.27l-1.26.2-2 1.46-.82 2.5v10.67h-2v-11l1.1-3.4 2.92-2.12 1.9-.3h10.43zm31.04 0h-20.7v-2h20.7zm31.02 0h-20.7v-2h20.7zm31.04 0h-20.7v-2h20.7zm26.1 0h-15.75v-2h15.77zm98.06 0h-20.7v-2h20.7zm26.7-5.92l-.3 1.9-2.14 2.9-3.4 1.12h-10.5v-2h10.18l2.5-.82 1.45-2 .2-1.26v-10.06h2zm-57.74 5.92h-17.84v-2h17.84zm57.73-26.3h-2v-20.28h2zm0-30.42h-2v-20.3h2zm0-30.44h-2v-20.3h2zm0-30.43h-2v-20.28h2zm0-30.42h-2v-20.3h2zm0-30.44h-2v-20.3h2zm0-30.43h-2v-10.14h2zM960 959.62V961l-.03-2z" fill="#999"/><path d="M1249.36 618.67l-1.73 1.02-9.32-15.77-9.3 15.76-1.73-1.03L1238.3 600z" fill="#999"/><g><use xlink:href="#ai" transform="matrix(1,0,0,1,1114.570705251545,810.6666666666666) translate(-5.705500000000001 12.444444444444446)"/></g><path d="M1221 2135.16l-1.1 3.4-2.92 2.13-1.9.3h-10.23v-2h10.07l1.26-.2 2-1.46.82-2.5v-9.73h2zm-26.3 5.84h-20.32v-2h20.3zm-30.47 0h-20.3v-2h20.3zm-30.46 0h-20.3v-2h20.3zm-30.46 0H1083v-2h20.3zm-30.46 0h-20.3v-2h20.3zm-30.46 0h-20.3v-2h20.3zm-30.46 0h-20.3v-2h20.3zm-30.46 0h-20.3v-2h20.3zm-44.62-6.08l.2 1.26 1.47 2 2.5.82h10v2h-10.32l-3.4-1.1-2.13-2.92-.3-1.9v-8.92h2zm0-17.6h-2v-17.68h2zm284.16-2.1h-2v-19.8h2zm-284.16-24.42h-2v-8.84h2zm284.16-5.26h-2v-19.8h2zm0-29.68h-2v-19.78h2zm0-29.68h-2v-19.78h2zm0-29.67h-2v-19.78h2zm0-29.67h-2v-19.8h2zm0-29.68h-2v-19.78h2zm0-29.68h-2v-19.78h2zm0-29.67h-2V1858h2zm0-29.68h-2v-19.8h2zm0-29.68h-2v-19.78h2zm0-29.68h-2v-19.78h2zm0-29.67h-2v-19.8h2zm0-29.7h-2v-19.78h2zm0-29.67h-2v-19.78h2zm0-29.68h-2v-19.78h2zm0-29.67h-2v-19.8h2zm0-29.68h-2v-19.8h2zm0-29.68h-2v-19.78h2zm0-29.68h-2v-19.78h2zm0-29.67h-2v-19.8h2zm0-29.68h-2v-19.8h2zm0-29.7h-2v-19.77h2zm0-29.67h-2v-19.78h2zm0-43.1h-2v-6.36h2zm0-16.25h-2v-19.8h2zm0-29.68h-2v-19.78h2zm0-29.68h-2v-19.78h2zm0-29.67h-2v-19.8h2zm0-29.68h-2v-19.8h2zm-2.43-44.46l2.12 2.92.3 1.9v9.97h-2v-9.82l-.2-1.26-1.46-2-2.5-.82h-9.17v-2h9.5zm-147.57-5.26l.82 2.5 2 1.46 1.26.2h9.25v2h-9.4l-1.9-.3-2.92-2.13-1.1-3.4v-10.45h2zm41.33 6.16h-18.66v-2h18.66zm28 0h-18.66v-2h18.66zm28 0h-18.66v-2h18.66zm28 0h-18.66v-2h18.66zM1071 1184.44h-2v-20.55h2zm0-30.83h-2v-20.54h2zm0-30.82h-2v-20.56h2zm0-30.84h-2v-20.55h2zm0-30.83h-2v-20.54h2zm0-30.82h-2V1020h2zM1071 1020h-1 .9zm-2 0h1z" fill="#999"/><path d="M946.88 2098.67l-1.72 1.02-9.32-15.77-9.32 15.76-1.72-1.03 11.04-18.67z" fill="#999"/><g><use xlink:href="#ai" transform="matrix(1,0,0,1,1195.4135802469136,1389.5428650981228) translate(-5.705500000000001 12.444444444444446)"/></g><path d="M545.16 1960h-2v-9.96h2zm0-19.92h-2v-19.93h2zm0-29.9h-2v-19.9h2zm0-29.88h-2v-19.92h2zm0-29.88h-2v-19.93h2zm0-29.9h-2v-19.9h2zm0-29.88h-2v-19.92h2zm0-29.88h-2v-19.93h2zm0-29.9h-2v-19.9h2zm0-29.88h-2v-19.92h2zm0-29.88h-2v-19.93h2zm0-29.9h-2v-19.9h2zm0-29.87h-2v-19.93h2zm0-29.9h-2v-19.9h2zm0-29.88h-2v-19.92h2zm0-29.88h-2v-19.93h2zm0-29.9h-2v-19.9h2zm0-47.16h-2v-2.63h2zm0-12.6h-2v-19.92h2zm0-46.33h-2v-3.47h2zm0-13.44h-2v-19.92h2zm0-29.88h-2v-19.93h2zm0-29.9h-2v-19.9h2zm0-29.87h-2v-19.93h2zm0-29.9h-2v-19.9h2zm0-29.88h-2v-19.92h2zm0-29.88h-2V1173h2zm0-29.9h-2v-19.9h2zm0-29.88h-2v-19.92h2zm0-29.88h-2v-19.93h2zm0-29.9h-2v-19.9h2zm0-29.88h-2v-19.92h2zm0-29.88h-2v-19.93h2zm0-29.9h-2v-19.9h2zm0-29.87h-2V933.9h2zm0-29.9h-2v-19.9h2zm0-29.88h-2v-19.92h2zm0-29.88h-2v-19.93h2zm0-29.9h-2v-19.9h2zm0-29.88h-2v-19.93h2zm0-29.9h-2V754.6h2zm0-29.88h-2V724.7h2zm0-29.9h-2v-19.9h2zm0-29.87h-2v-19.93h2zM559.48 641h-10.24l-1.27.2-2 1.46-.8 2.5v9.8h-2v-10.12l1.1-3.4 2.9-2.13 1.9-.3h10.4zm30.98 0H569.8v-2h20.66zm30.97 0h-20.65v-2h20.65zm30.97 0h-20.65v-2h20.65zm30.98 0h-20.65v-2h20.65zm30.97 0H693.7v-2h20.65zm26.65-5.92l-.3 1.9-2.13 2.9-3.4 1.12h-10.5v-2h10.17l2.5-.82 1.46-2 .2-1.26V624h2zm0-22.1h-2v-11.02h2zM545.16 1960.03l-.94-.03h.94zm-.94-.03h-.96.9z" fill="#999"/><path d="M751.04 618.67l-1.72 1.02-9.32-15.77-9.32 15.76-1.72-1.03L740 600z" fill="#999"/><g><use xlink:href="#ai" transform="matrix(1,0,0,1,519.5707052515452,1444.6129034267444) translate(-5.705500000000001 12.444444444444446)"/></g><path d="M191 1660h-2v-9.9h2zm0-19.8h-2v-19.78h2zm0-29.68h-2v-19.8h2zm0-29.7h-2v-19.78h2zm0-29.67h-2v-19.8h2zm0-29.7h-2v-19.78h2zm0-29.68h-2v-19.8h2zm0-29.7h-2v-19.78h2zm0-29.67h-2v-19.8h2zm0-29.7h-2v-6.1h2zm0-29.68h-2v-19.8h2zm0-29.7h-2v-19.78h2zm0-29.67h-2v-19.8h2zm0-29.7h-2v-19.78h2zm0-29.68h-2v-19.8h2zm0-29.7h-2v-19.78h2zm14.2-43.57H195.1l-1.26.2-2 1.46-.82 2.5v9.74h-2v-10.06l1.1-3.4 2.92-2.13 1.9-.3h10.3zm30.63 0H215.4v-2h20.43zm30.62 0h-20.42v-2h20.42zm30.62 0h-20.4v-2h20.4zm30.62 0h-20.42v-2h20.4zm30.6 0h-20.4v-2h20.4zm30.63 0h-20.4v-2h20.4zm30.62 0h-20.4v-2h20.4zm30.62 0h-20.4v-2h20.4zm30.62 0h-20.42v-2h20.4zm30.6 0H491v-2h20.4zm30.64 0h-20.42v-2h20.42zm30.62 0h-20.42v-2h20.42zm30.62 0h-20.42v-2h20.42zm30.62 0h-20.42v-2h20.42zm30.62 0H644.1v-2h20.42zm30.62 0h-20.42v-2h20.42zm30.62 0h-20.4v-2h20.4zm30.62 0h-20.4v-2h20.4zm30.62 0h-20.4v-2H787zm30.62 0h-20.4v-2h20.4zm20.42 0h-10.2v-2h10.2zM191 1660.03l-.94-.03h.94zm-.94-.03h-.96.9z" fill="#999"/><path d="M840 1180l-18.67 11.04-1.02-1.72 15.77-9.32-15.76-9.32 1.03-1.72z" fill="#999"/><g><use xlink:href="#ai" transform="matrix(1,0,0,1,165.41358024691345,1377.925423899616) translate(-5.705500000000001 12.444444444444446)"/></g><path d="M701 1135.16l-1.1 3.4-2.92 2.13-1.9.3h-10.64v-2h10.48l1.26-.2 2-1.46.82-2.5v-6.3h2zm-27.1 5.84h-21.12v-2h21.1zm-31.68 0h-21.1v-2h21.1zm-31.66 0h-21.12v-2h21.12zm-31.67 0h-21.12v-2h21.1zm-31.68 0h-21.1v-2h21.1zm-46.22-6.08l.2 1.26 1.46 2 2.5.82h10.4v2h-10.72l-3.4-1.1-2.13-2.92-.3-1.9v-9.5h2zm0-18.76h-2v-18.84h2zm200-6.28h-2v-13.2h2zm-200-21.98h-2v-18.84h2zm200-.82h-2v-19.16h2zm-200-27.44h-2v-18.84h2zm200-1.3h-2v-19.17h2zm-200-26.96h-2v-9.42h2zm200-1.8h-2V1020h2zM701 1020h-1 .9zm-2 0h1z" fill="#999"/><path d="M511.04 1038.67l-1.72 1.02-9.32-15.77-9.32 15.76-1.72-1.03L500 1020z" fill="#999"/><g><use xlink:href="#ai" transform="matrix(1,0,0,1,675.4135802469136,1109.8754889446243) translate(-5.705500000000001 12.444444444444446)"/></g><path d="M644.25 1100h232.1v61.67h-232.1z" fill="#fff" fill-opacity="0"/><g><use xlink:href="#aj" transform="matrix(1,0,0,1,644.2453855760926,1100) translate(71.22968518518519 17.454444444444448)"/><use xlink:href="#ak" transform="matrix(1,0,0,1,644.2453855760926,1100) translate(97.9765987654321 17.454444444444448)"/><use xlink:href="#al" transform="matrix(1,0,0,1,644.2453855760926,1100) translate(126.49511728395062 17.454444444444448)"/><use xlink:href="#am" transform="matrix(1,0,0,1,644.2453855760926,1100) translate(49.67592592592593 36.12111111111112)"/></g><path d="M900 740c0 33.14-35.82 60-80 60s-80-26.86-80-60 35.82-60 80-60 80 26.86 80 60z" stroke="#000" stroke-opacity="0" fill="#dedffc"/><g><use xlink:href="#an" transform="matrix(1,0,0,1,740.0000000000002,680) translate(19.104999999999997 51.9)"/><use xlink:href="#ao" transform="matrix(1,0,0,1,740.0000000000002,680) translate(62.005 51.9)"/><use xlink:href="#ap" transform="matrix(1,0,0,1,740.0000000000002,680) translate(77.005 51.9)"/><use xlink:href="#aq" transform="matrix(1,0,0,1,740.0000000000002,680) translate(111.905 51.9)"/><use xlink:href="#ar" transform="matrix(1,0,0,1,740.0000000000002,680) translate(41.08 73.5)"/></g><path d="M1220 720c0 33.14-35.82 60-80 60s-80-26.86-80-60 35.82-60 80-60 80 26.86 80 60z" stroke="#000" stroke-opacity="0" fill="#dedffc"/><g><use xlink:href="#as" transform="matrix(1,0,0,1,1060.0000000000002,660) translate(43.055 51.9)"/><use xlink:href="#aq" transform="matrix(1,0,0,1,1060.0000000000002,660) translate(87.95500000000001 51.9)"/><use xlink:href="#at" transform="matrix(1,0,0,1,1060.0000000000002,660) translate(40.05499999999999 73.5)"/></g><path d="M900 540h-35c-2.76 0-5 2.24-5 5v90c0 2.76 2.24 5 5 5h70c2.76 0 5 2.24 5 5v90c0 2.76-2.24 5-5 5h-33.04" stroke="#999" stroke-width="2" fill="none"/><path d="M900 540v.38l.03.62H900v-2h.03zM919.7 730.68L903.92 740l15.76 9.32-1.03 1.72L900 740l18.67-11.04z" fill="#999"/><path d="M1060 540h35c2.76 0 5 2.24 5 5v80c0 2.76-2.24 5-5 5h-70c-2.76 0-5 2.24-5 5v80c0 2.76 2.24 5 5 5h33.04" stroke="#999" stroke-width="2" fill="none"/><path d="M1060 541h-.03l.03-1v-.38l-.03-.62h.03zM1060 720l-18.67 11.04-1.02-1.72 15.77-9.32-15.76-9.32 1.03-1.72z" fill="#999"/><path d="M1000 1180c0 33.14-35.82 60-80 60s-80-26.86-80-60 35.82-60 80-60 80 26.86 80 60z" stroke="#000" stroke-opacity="0" fill="#dedffc"/><g><use xlink:href="#au" transform="matrix(1,0,0,1,840,1120) translate(27.504999999999995 51.9)"/><use xlink:href="#aq" transform="matrix(1,0,0,1,840,1120) translate(103.505 51.9)"/><use xlink:href="#av" transform="matrix(1,0,0,1,840,1120) translate(39.60499999999999 73.5)"/></g><path d="M880 1020v45c0 2.76 2.24 5 5 5h30c2.76 0 5 2.24 5 5v43.04" stroke="#999" stroke-width="2" fill="none"/><path d="M880 1020h-1v-.03zm1 0h-1 1zM931.04 1101.33L920 1120l-11.04-18.67 1.72-1.02 9.32 15.77 9.32-15.76zM939.9 1731H930v-2h9.9zm29.66 0h-19.78v-2h19.78zm29.67 0h-19.78v-2h19.78zm29.67 0h-19.78v-2h19.78zm29.67 0h-19.78v-2h19.77zm29.67 0h-19.78v-2h19.78zm29.67 0h-19.77v-2h19.78zm29.68 0h-19.78v-2h19.78zm29.67 0h-19.78v-2h19.78zm29.67 0h-19.78v-2h19.78zm29.67 0h-19.8v-2h19.8zm25.77-5.92l-.3 1.9-2.13 2.9-3.4 1.12h-10.06v-2h9.73l2.5-.82 1.46-2 .2-1.26v-9.86h2zm0-19.97h-2v-19.87h2zm0-29.8h-2v-19.9h2zm0-29.84h-2v-19.9h2zm0-29.83h-2v-19.88h2zm0-29.83h-2v-19.88h2zm0-29.82h-2v-19.9h2zm0-29.83h-2v-19.9h2zm0-29.83h-2v-19.9h2zm0-29.83h-2v-19.9h2zm0-29.84h-2v-19.88h2zm0-29.82h-2v-19.9h2zm0-29.83h-2v-19.88h2zm0-29.82h-2v-19.88h2zm0-29.83h-2v-19.88h2zm0-29.83h-2v-19.88h2zm0-29.82h-2v-19.9h2zm0-29.83h-2v-19.9h2zm0-29.83h-2v-19.88h2zm0-29.83h-2v-19.87h2zm0-29.8h-2v-19.9h2zm0-29.84h-2v-19.9h2zm0-29.83h-2v-19.9h2zm0-29.83h-2v-19.88h2zm0-29.83h-2v-9.94h2zM930 1729.38v1.62l-.02-2z" fill="#999"/><path d="M1272.4 1025.84l-1.7 1.02-9.33-15.76-9.32 15.76-1.73-1.02 11.05-18.67zM701 898.04h-2v-9.54h2zm0-19.08h-2V859.9h2zm0-28.6h-2V831.3h2zm0-28.6h-2v-19.08h2zm0-28.62h-2v-19.07h2zm-2.43-43.03l2.12 2.92.3 1.9v9.62h-2v-9.46l-.2-1.26-1.46-2-2.5-.82h-10.4v-2h10.72zm-119.68.9h-21.12v-2h21.1zm31.66 0h-21.12v-2h21.12zm31.66 0h-21.1v-2h21.1zm31.67 0h-21.12v-2h21.1zm-126.68 0H534.6v-2h12.62zM501 740.67h-2v-5.34h2zm0-15h-2v-19.34h2zm0-29h-2v-19.34h2zm0-29h-2v-19.34h2zm0-29h-2v-19.34h2zm0-29h-2V600h2zM501 600h-1 .9zm-2 0h1z" fill="#999"/><path d="M711.04 881.33L700 900l-11.04-18.67 1.72-1.02 9.32 15.77 9.32-15.76z" fill="#999"/><g><use xlink:href="#ai" transform="matrix(1,0,0,1,485.4242074390733,740.6666666666666) translate(-5.705500000000001 12.444444444444446)"/></g><path d="M420 961h-11.67v-2H420zm-39-6.08l.2 1.26 1.46 2 2.5.82h11.5v2h-11.82l-3.4-1.1-2.13-2.92-.3-1.9v-9.84h2zm0-19.44h-2v-19.53h2zm0-29.3h-2v-19.5h2zm0-29.28h-2v-19.52h2zm0-29.28h-2V828.1h2zm0-29.3h-2v-19.5h2zm0-29.27h-2v-19.53h2zm0-29.3h-2v-19.5h2zm0-29.27h-2v-19.53h2zm0-29.3h-2v-6.95h2zm0-29.28h-2v-19.52h2zm0-29.28h-2V623.1h2zm0-29.3h-2v-19.5h2zm0-29.27h-2v-19.53h2zM396 541H385.1l-1.26.2-2 1.46-.82 2.5v9.6h-2v-9.92l1.1-3.4 2.92-2.13 1.9-.3h11.1zm22.04 0h-11.02v-2h11.02zM420.03 961l-.03-.62V959z" fill="#999"/><path d="M420 540l-18.67 11.04-1.02-1.72 15.77-9.32-15.76-9.32 1.03-1.72z" fill="#999"/><g><use xlink:href="#aw" transform="matrix(1,0,0,1,351.5246913580247,675.56743476977) translate(-5.705500000000001 12.444444444444446)"/></g><defs><path fill="#666" d="M127-220V0H93v-220H8v-28h204v28h-85" id="ax"/><path fill="#666" d="M100-194c62-1 85 37 85 99 1 63-27 99-86 99S16-35 15-95c0-66 28-99 85-99zM99-20c44 1 53-31 53-75 0-43-8-75-51-75s-53 32-53 75 10 74 51 75" id="ay"/><path fill="#666" d="M84 4C-5 8 30-112 23-190h32v120c0 31 7 50 39 49 72-2 45-101 50-169h31l1 190h-30c-1-10 1-25-2-33-11 22-28 36-60 37" id="az"/><path fill="#666" d="M59-47c-2 24 18 29 38 22v24C64 9 27 4 27-40v-127H5v-23h24l9-43h21v43h35v23H59v120" id="aA"/><path fill="#666" d="M100-194c63 0 86 42 84 106H49c0 40 14 67 53 68 26 1 43-12 49-29l28 8c-11 28-37 45-77 45C44 4 14-33 15-96c1-61 26-98 85-98zm52 81c6-60-76-77-97-28-3 7-6 17-6 28h103" id="aB"/><path fill="#666" d="M135-143c-3-34-86-38-87 0 15 53 115 12 119 90S17 21 10-45l28-5c4 36 97 45 98 0-10-56-113-15-118-90-4-57 82-63 122-42 12 7 21 19 24 35" id="aC"/><g id="a"><use transform="matrix(0.04320987654320988,0,0,0.04320987654320988,0,0)" xlink:href="#ax"/><use transform="matrix(0.04320987654320988,0,0,0.04320987654320988,7.734567901234567,0)" xlink:href="#ay"/><use transform="matrix(0.04320987654320988,0,0,0.04320987654320988,16.376543209876544,0)" xlink:href="#az"/><use transform="matrix(0.04320987654320988,0,0,0.04320987654320988,25.018518518518523,0)" xlink:href="#aA"/><use transform="matrix(0.04320987654320988,0,0,0.04320987654320988,29.339506172839503,0)" xlink:href="#aB"/><use transform="matrix(0.04320987654320988,0,0,0.04320987654320988,37.98148148148148,0)" xlink:href="#aC"/></g><path fill="#666" d="M141-36C126-15 110 5 73 4 37 3 15-17 15-53c-1-64 63-63 125-63 3-35-9-54-41-54-24 1-41 7-42 31l-33-3c5-37 33-52 76-52 45 0 72 20 72 64v82c-1 20 7 32 28 27v20c-31 9-61-2-59-35zM48-53c0 20 12 33 32 33 41-3 63-29 60-74-43 2-92-5-92 41" id="aD"/><path fill="#666" d="M96-169c-40 0-48 33-48 73s9 75 48 75c24 0 41-14 43-38l32 2c-6 37-31 61-74 61-59 0-76-41-82-99-10-93 101-131 147-64 4 7 5 14 7 22l-32 3c-4-21-16-35-41-35" id="aE"/><path fill="#666" d="M24-231v-30h32v30H24zM24 0v-190h32V0H24" id="aF"/><path fill="#666" d="M117-194c89-4 53 116 60 194h-32v-121c0-31-8-49-39-48C34-167 62-67 57 0H25l-1-190h30c1 10-1 24 2 32 11-22 29-35 61-36" id="aG"/><path fill="#666" d="M68-38c1 34 0 65-14 84H32c9-13 17-26 17-46H33v-38h35" id="aH"/><g id="b"><use transform="matrix(0.04320987654320988,0,0,0.04320987654320988,0,0)" xlink:href="#aD"/><use transform="matrix(0.04320987654320988,0,0,0.04320987654320988,8.641975308641976,0)" xlink:href="#aE"/><use transform="matrix(0.04320987654320988,0,0,0.04320987654320988,16.419753086419753,0)" xlink:href="#aA"/><use transform="matrix(0.04320987654320988,0,0,0.04320987654320988,20.74074074074074,0)" xlink:href="#aF"/><use transform="matrix(0.04320987654320988,0,0,0.04320987654320988,24.154320987654323,0)" xlink:href="#ay"/><use transform="matrix(0.04320987654320988,0,0,0.04320987654320988,32.7962962962963,0)" xlink:href="#aG"/><use transform="matrix(0.04320987654320988,0,0,0.04320987654320988,41.43827160493827,0)" xlink:href="#aC"/><use transform="matrix(0.04320987654320988,0,0,0.04320987654320988,49.21604938271606,0)" xlink:href="#aH"/></g><path fill="#666" d="M101-234c-31-9-42 10-38 44h38v23H63V0H32v-167H5v-23h27c-7-52 17-82 69-68v24" id="aI"/><g id="c"><use transform="matrix(0.04320987654320988,0,0,0.04320987654320988,0,0)" xlink:href="#aC"/><use transform="matrix(0.04320987654320988,0,0,0.04320987654320988,7.777777777777779,0)" xlink:href="#aD"/><use transform="matrix(0.04320987654320988,0,0,0.04320987654320988,16.419753086419753,0)" xlink:href="#az"/><use transform="matrix(0.04320987654320988,0,0,0.04320987654320988,25.061728395061728,0)" xlink:href="#aI"/></g><path fill="#666" d="M24 0v-261h32V0H24" id="aJ"/><g id="d"><use transform="matrix(0.04320987654320988,0,0,0.04320987654320988,0,0)" xlink:href="#aJ"/><use transform="matrix(0.04320987654320988,0,0,0.04320987654320988,3.4135802469135808,0)" xlink:href="#aD"/></g><path fill="#666" d="M115-194c55 1 70 41 70 98S169 2 115 4C84 4 66-9 55-30l1 105H24l-1-265h31l2 30c10-21 28-34 59-34zm-8 174c40 0 45-34 45-75s-6-73-45-74c-42 0-51 32-51 76 0 43 10 73 51 73" id="aK"/><g id="e"><use transform="matrix(0.04320987654320988,0,0,0.04320987654320988,0,0)" xlink:href="#aK"/><use transform="matrix(0.04320987654320988,0,0,0.04320987654320988,8.641975308641976,0)" xlink:href="#ay"/><use transform="matrix(0.04320987654320988,0,0,0.04320987654320988,17.283950617283953,0)" xlink:href="#aC"/><use transform="matrix(0.04320987654320988,0,0,0.04320987654320988,25.06172839506173,0)" xlink:href="#aA"/><use transform="matrix(0.04320987654320988,0,0,0.04320987654320988,29.38271604938272,0)" xlink:href="#az"/><use transform="matrix(0.04320987654320988,0,0,0.04320987654320988,38.0246913580247,0)" xlink:href="#aJ"/><use transform="matrix(0.04320987654320988,0,0,0.04320987654320988,41.43827160493828,0)" xlink:href="#aD"/><use transform="matrix(0.04320987654320988,0,0,0.04320987654320988,50.080246913580254,0)" xlink:href="#aA"/><use transform="matrix(0.04320987654320988,0,0,0.04320987654320988,54.40123456790124,0)" xlink:href="#aF"/><use transform="matrix(0.04320987654320988,0,0,0.04320987654320988,57.814814814814824,0)" xlink:href="#ay"/><use transform="matrix(0.04320987654320988,0,0,0.04320987654320988,66.4567901234568,0)" xlink:href="#aG"/></g><path fill="#666" d="M85-194c31 0 48 13 60 33l-1-100h32l1 261h-30c-2-10 0-23-3-31C134-8 116 4 85 4 32 4 16-35 15-94c0-66 23-100 70-100zm9 24c-40 0-46 34-46 75 0 40 6 74 45 74 42 0 51-32 51-76 0-42-9-74-50-73" id="aL"/><g id="f"><use transform="matrix(0.04320987654320988,0,0,0.04320987654320988,0,0)" xlink:href="#aL"/><use transform="matrix(0.04320987654320988,0,0,0.04320987654320988,8.641975308641976,0)" xlink:href="#aB"/></g><path fill="#666" d="M114-163C36-179 61-72 57 0H25l-1-190h30c1 12-1 29 2 39 6-27 23-49 58-41v29" id="aM"/><g id="g"><use transform="matrix(0.04320987654320988,0,0,0.04320987654320988,0,0)" xlink:href="#aE"/><use transform="matrix(0.04320987654320988,0,0,0.04320987654320988,7.777777777777779,0)" xlink:href="#ay"/><use transform="matrix(0.04320987654320988,0,0,0.04320987654320988,16.419753086419753,0)" xlink:href="#aG"/><use transform="matrix(0.04320987654320988,0,0,0.04320987654320988,25.061728395061728,0)" xlink:href="#aL"/><use transform="matrix(0.04320987654320988,0,0,0.04320987654320988,33.7037037037037,0)" xlink:href="#aF"/><use transform="matrix(0.04320987654320988,0,0,0.04320987654320988,37.117283950617285,0)" xlink:href="#aL"/><use transform="matrix(0.04320987654320988,0,0,0.04320987654320988,45.75925925925927,0)" xlink:href="#aD"/><use transform="matrix(0.04320987654320988,0,0,0.04320987654320988,54.40123456790123,0)" xlink:href="#aA"/><use transform="matrix(0.04320987654320988,0,0,0.04320987654320988,58.72222222222222,0)" xlink:href="#az"/><use transform="matrix(0.04320987654320988,0,0,0.04320987654320988,67.3641975308642,0)" xlink:href="#aM"/><use transform="matrix(0.04320987654320988,0,0,0.04320987654320988,72.50617283950618,0)" xlink:href="#aB"/></g><path fill="#666" d="M100-194c63 0 86 42 84 106H49c0 40 14 67 53 68 26 1 43-12 49-29l28 8c-11 28-37 45-77 45C44 4 14-33 15-96c1-61 26-98 85-98zm52 81c6-60-76-77-97-28-3 7-6 17-6 28h103zm-74-98c8-23 27-35 38-54h36v5l-58 49H78" id="aN"/><g id="h"><use transform="matrix(0.04320987654320988,0,0,0.04320987654320988,0,0)" xlink:href="#aG"/><use transform="matrix(0.04320987654320988,0,0,0.04320987654320988,8.641975308641976,0)" xlink:href="#aN"/><use transform="matrix(0.04320987654320988,0,0,0.04320987654320988,17.283950617283953,0)" xlink:href="#aE"/><use transform="matrix(0.04320987654320988,0,0,0.04320987654320988,25.06172839506173,0)" xlink:href="#aF"/><use transform="matrix(0.04320987654320988,0,0,0.04320987654320988,28.47530864197531,0)" xlink:href="#aC"/><use transform="matrix(0.04320987654320988,0,0,0.04320987654320988,36.25308641975309,0)" xlink:href="#aC"/><use transform="matrix(0.04320987654320988,0,0,0.04320987654320988,44.03086419753087,0)" xlink:href="#aF"/><use transform="matrix(0.04320987654320988,0,0,0.04320987654320988,47.44444444444445,0)" xlink:href="#aA"/><use transform="matrix(0.04320987654320988,0,0,0.04320987654320988,51.76543209876544,0)" xlink:href="#aB"/></g><path fill="#666" d="M47-170H22l-4-78h33" id="aO"/><path fill="#666" d="M106-169C34-169 62-67 57 0H25v-261h32l-1 103c12-21 28-36 61-36 89 0 53 116 60 194h-32v-121c2-32-8-49-39-48" id="aP"/><g id="i"><use transform="matrix(0.04320987654320988,0,0,0.04320987654320988,0,0)" xlink:href="#aJ"/><use transform="matrix(0.04320987654320988,0,0,0.04320987654320988,3.4135802469135808,0)" xlink:href="#aO"/><use transform="matrix(0.04320987654320988,0,0,0.04320987654320988,6.351851851851852,0)" xlink:href="#aD"/><use transform="matrix(0.04320987654320988,0,0,0.04320987654320988,14.99382716049383,0)" xlink:href="#az"/><use transform="matrix(0.04320987654320988,0,0,0.04320987654320988,23.635802469135804,0)" xlink:href="#aA"/><use transform="matrix(0.04320987654320988,0,0,0.04320987654320988,27.956790123456795,0)" xlink:href="#aP"/><use transform="matrix(0.04320987654320988,0,0,0.04320987654320988,36.598765432098766,0)" xlink:href="#aB"/><use transform="matrix(0.04320987654320988,0,0,0.04320987654320988,45.24074074074073,0)" xlink:href="#aG"/><use transform="matrix(0.04320987654320988,0,0,0.04320987654320988,53.882716049382715,0)" xlink:href="#aA"/><use transform="matrix(0.04320987654320988,0,0,0.04320987654320988,58.2037037037037,0)" xlink:href="#aF"/><use transform="matrix(0.04320987654320988,0,0,0.04320987654320988,61.61728395061728,0)" xlink:href="#aI"/><use transform="matrix(0.04320987654320988,0,0,0.04320987654320988,65.93827160493828,0)" xlink:href="#aF"/><use transform="matrix(0.04320987654320988,0,0,0.04320987654320988,69.35185185185186,0)" xlink:href="#aE"/><use transform="matrix(0.04320987654320988,0,0,0.04320987654320988,77.12962962962965,0)" xlink:href="#aD"/><use transform="matrix(0.04320987654320988,0,0,0.04320987654320988,85.77160493827162,0)" xlink:href="#aA"/><use transform="matrix(0.04320987654320988,0,0,0.04320987654320988,90.0925925925926,0)" xlink:href="#aF"/><use transform="matrix(0.04320987654320988,0,0,0.04320987654320988,93.50617283950618,0)" xlink:href="#ay"/><use transform="matrix(0.04320987654320988,0,0,0.04320987654320988,102.14814814814815,0)" xlink:href="#aG"/></g><g id="j"><use transform="matrix(0.04320987654320988,0,0,0.04320987654320988,0,0)" xlink:href="#aL"/><use transform="matrix(0.04320987654320988,0,0,0.04320987654320988,8.641975308641976,0)" xlink:href="#aB"/></g><g id="k"><use transform="matrix(0.04320987654320988,0,0,0.04320987654320988,0,0)" xlink:href="#aJ"/><use transform="matrix(0.04320987654320988,0,0,0.04320987654320988,3.4135802469135808,0)" xlink:href="#aO"/><use transform="matrix(0.04320987654320988,0,0,0.04320987654320988,6.351851851851852,0)" xlink:href="#az"/><use transform="matrix(0.04320987654320988,0,0,0.04320987654320988,14.99382716049383,0)" xlink:href="#aA"/><use transform="matrix(0.04320987654320988,0,0,0.04320987654320988,19.314814814814817,0)" xlink:href="#aF"/><use transform="matrix(0.04320987654320988,0,0,0.04320987654320988,22.7283950617284,0)" xlink:href="#aJ"/><use transform="matrix(0.04320987654320988,0,0,0.04320987654320988,26.14197530864198,0)" xlink:href="#aF"/><use transform="matrix(0.04320987654320988,0,0,0.04320987654320988,29.555555555555564,0)" xlink:href="#aC"/><use transform="matrix(0.04320987654320988,0,0,0.04320987654320988,37.33333333333334,0)" xlink:href="#aD"/><use transform="matrix(0.04320987654320988,0,0,0.04320987654320988,45.97530864197531,0)" xlink:href="#aA"/><use transform="matrix(0.04320987654320988,0,0,0.04320987654320988,50.296296296296305,0)" xlink:href="#aB"/><use transform="matrix(0.04320987654320988,0,0,0.04320987654320988,58.93827160493828,0)" xlink:href="#az"/><use transform="matrix(0.04320987654320988,0,0,0.04320987654320988,67.58024691358025,0)" xlink:href="#aM"/></g><path fill="#666" d="M205 0l-28-72H64L36 0H1l101-248h38L239 0h-34zm-38-99l-47-123c-12 45-31 82-46 123h93" id="aQ"/><path fill="#666" d="M177-190C167-65 218 103 67 71c-23-6-38-20-44-43l32-5c15 47 100 32 89-28v-30C133-14 115 1 83 1 29 1 15-40 15-95c0-56 16-97 71-98 29-1 48 16 59 35 1-10 0-23 2-32h30zM94-22c36 0 50-32 50-73 0-42-14-75-50-75-39 0-46 34-46 75s6 73 46 73" id="aR"/><g id="l"><use transform="matrix(0.04320987654320988,0,0,0.04320987654320988,0,0)" xlink:href="#aQ"/><use transform="matrix(0.04320987654320988,0,0,0.04320987654320988,10.370370370370372,0)" xlink:href="#aR"/><use transform="matrix(0.04320987654320988,0,0,0.04320987654320988,19.01234567901235,0)" xlink:href="#aB"/><use transform="matrix(0.04320987654320988,0,0,0.04320987654320988,27.654320987654323,0)" xlink:href="#aG"/><use transform="matrix(0.04320987654320988,0,0,0.04320987654320988,36.2962962962963,0)" xlink:href="#aA"/></g><path fill="#666" d="M233-177c-1 41-23 64-60 70L243 0h-38l-65-103H63V0H30v-248c88 3 205-21 203 71zM63-129c60-2 137 13 137-47 0-61-80-42-137-45v92" id="aS"/><path fill="#666" d="M197 0v-115H63V0H30v-248h33v105h134v-105h34V0h-34" id="aT"/><g id="m"><use transform="matrix(0.04320987654320988,0,0,0.04320987654320988,0,0)" xlink:href="#aS"/><use transform="matrix(0.04320987654320988,0,0,0.04320987654320988,11.19135802469136,0)" xlink:href="#aT"/></g><path fill="#666" d="M115-194c53 0 69 39 70 98 0 66-23 100-70 100C84 3 66-7 56-30L54 0H23l1-261h32v101c10-23 28-34 59-34zm-8 174c40 0 45-34 45-75 0-40-5-75-45-74-42 0-51 32-51 76 0 43 10 73 51 73" id="aU"/><g id="n"><use transform="matrix(0.04320987654320988,0,0,0.04320987654320988,0,0)" xlink:href="#aS"/><use transform="matrix(0.04320987654320988,0,0,0.04320987654320988,11.19135802469136,0)" xlink:href="#aB"/><use transform="matrix(0.04320987654320988,0,0,0.04320987654320988,19.833333333333336,0)" xlink:href="#aC"/><use transform="matrix(0.04320987654320988,0,0,0.04320987654320988,27.611111111111114,0)" xlink:href="#aK"/><use transform="matrix(0.04320987654320988,0,0,0.04320987654320988,36.25308641975309,0)" xlink:href="#ay"/><use transform="matrix(0.04320987654320988,0,0,0.04320987654320988,44.89506172839506,0)" xlink:href="#aG"/><use transform="matrix(0.04320987654320988,0,0,0.04320987654320988,53.537037037037045,0)" xlink:href="#aC"/><use transform="matrix(0.04320987654320988,0,0,0.04320987654320988,61.314814814814824,0)" xlink:href="#aD"/><use transform="matrix(0.04320987654320988,0,0,0.04320987654320988,69.9567901234568,0)" xlink:href="#aU"/><use transform="matrix(0.04320987654320988,0,0,0.04320987654320988,78.59876543209877,0)" xlink:href="#aJ"/><use transform="matrix(0.04320987654320988,0,0,0.04320987654320988,82.01234567901236,0)" xlink:href="#aB"/></g><path fill="#666" d="M30 0v-248h187v28H63v79h144v27H63v87h162V0H30" id="aV"/><path fill="#666" d="M210-169c-67 3-38 105-44 169h-31v-121c0-29-5-50-35-48C34-165 62-65 56 0H25l-1-190h30c1 10-1 24 2 32 10-44 99-50 107 0 11-21 27-35 58-36 85-2 47 119 55 194h-31v-121c0-29-5-49-35-48" id="aW"/><path fill="#666" d="M179-190L93 31C79 59 56 82 12 73V49c39 6 53-20 64-50L1-190h34L92-34l54-156h33" id="aX"/><g id="o"><use transform="matrix(0.04320987654320988,0,0,0.04320987654320988,0,0)" xlink:href="#aV"/><use transform="matrix(0.04320987654320988,0,0,0.04320987654320988,10.370370370370372,0)" xlink:href="#aW"/><use transform="matrix(0.04320987654320988,0,0,0.04320987654320988,23.290123456790127,0)" xlink:href="#aK"/><use transform="matrix(0.04320987654320988,0,0,0.04320987654320988,31.9320987654321,0)" xlink:href="#aJ"/><use transform="matrix(0.04320987654320988,0,0,0.04320987654320988,35.345679012345684,0)" xlink:href="#ay"/><use transform="matrix(0.04320987654320988,0,0,0.04320987654320988,43.98765432098766,0)" xlink:href="#aX"/><use transform="matrix(0.04320987654320988,0,0,0.04320987654320988,51.76543209876544,0)" xlink:href="#aN"/></g><path fill="#666" d="M212-179c-10-28-35-45-73-45-59 0-87 40-87 99 0 60 29 101 89 101 43 0 62-24 78-52l27 14C228-24 195 4 139 4 59 4 22-46 18-125c-6-104 99-153 187-111 19 9 31 26 39 46" id="aY"/><g id="p"><use transform="matrix(0.04320987654320988,0,0,0.04320987654320988,0,0)" xlink:href="#aY"/><use transform="matrix(0.04320987654320988,0,0,0.04320987654320988,11.19135802469136,0)" xlink:href="#aD"/><use transform="matrix(0.04320987654320988,0,0,0.04320987654320988,19.833333333333336,0)" xlink:href="#aG"/><use transform="matrix(0.04320987654320988,0,0,0.04320987654320988,28.47530864197531,0)" xlink:href="#aL"/><use transform="matrix(0.04320987654320988,0,0,0.04320987654320988,37.117283950617285,0)" xlink:href="#aF"/><use transform="matrix(0.04320987654320988,0,0,0.04320987654320988,40.53086419753087,0)" xlink:href="#aL"/><use transform="matrix(0.04320987654320988,0,0,0.04320987654320988,49.17283950617284,0)" xlink:href="#aD"/><use transform="matrix(0.04320987654320988,0,0,0.04320987654320988,57.814814814814824,0)" xlink:href="#aA"/></g><g id="q"><use transform="matrix(0.04320987654320988,0,0,0.04320987654320988,0,0)" xlink:href="#aS"/><use transform="matrix(0.04320987654320988,0,0,0.04320987654320988,11.19135802469136,0)" xlink:href="#aB"/><use transform="matrix(0.04320987654320988,0,0,0.04320987654320988,19.833333333333336,0)" xlink:href="#aC"/><use transform="matrix(0.04320987654320988,0,0,0.04320987654320988,27.611111111111114,0)" xlink:href="#aK"/><use transform="matrix(0.04320987654320988,0,0,0.04320987654320988,36.25308641975309,0)" xlink:href="#ay"/><use transform="matrix(0.04320987654320988,0,0,0.04320987654320988,44.89506172839506,0)" xlink:href="#aG"/><use transform="matrix(0.04320987654320988,0,0,0.04320987654320988,53.537037037037045,0)" xlink:href="#aC"/><use transform="matrix(0.04320987654320988,0,0,0.04320987654320988,61.314814814814824,0)" xlink:href="#aD"/><use transform="matrix(0.04320987654320988,0,0,0.04320987654320988,69.9567901234568,0)" xlink:href="#aU"/><use transform="matrix(0.04320987654320988,0,0,0.04320987654320988,78.59876543209877,0)" xlink:href="#aJ"/><use transform="matrix(0.04320987654320988,0,0,0.04320987654320988,82.01234567901236,0)" xlink:href="#aB"/></g><path fill="#666" d="M30-248c118-7 216 8 213 122C240-48 200 0 122 0H30v-248zM63-27c89 8 146-16 146-99s-60-101-146-95v194" id="aZ"/><g id="r"><use transform="matrix(0.04320987654320988,0,0,0.04320987654320988,0,0)" xlink:href="#aZ"/><use transform="matrix(0.04320987654320988,0,0,0.04320987654320988,11.19135802469136,0)" xlink:href="#aN"/><use transform="matrix(0.04320987654320988,0,0,0.04320987654320988,19.833333333333336,0)" xlink:href="#aK"/><use transform="matrix(0.04320987654320988,0,0,0.04320987654320988,28.47530864197531,0)" xlink:href="#aD"/><use transform="matrix(0.04320987654320988,0,0,0.04320987654320988,37.117283950617285,0)" xlink:href="#aM"/><use transform="matrix(0.04320987654320988,0,0,0.04320987654320988,42.25925925925926,0)" xlink:href="#aA"/><use transform="matrix(0.04320987654320988,0,0,0.04320987654320988,46.58024691358024,0)" xlink:href="#aB"/><use transform="matrix(0.04320987654320988,0,0,0.04320987654320988,55.22222222222222,0)" xlink:href="#aW"/><use transform="matrix(0.04320987654320988,0,0,0.04320987654320988,68.14197530864197,0)" xlink:href="#aB"/><use transform="matrix(0.04320987654320988,0,0,0.04320987654320988,76.78395061728395,0)" xlink:href="#aG"/><use transform="matrix(0.04320987654320988,0,0,0.04320987654320988,85.42592592592592,0)" xlink:href="#aA"/></g><path d="M205 0l-28-72H64L36 0H1l101-248h38L239 0h-34zm-38-99l-47-123c-12 45-31 82-46 123h93" id="ba"/><path d="M84 4C-5 8 30-112 23-190h32v120c0 31 7 50 39 49 72-2 45-101 50-169h31l1 190h-30c-1-10 1-25-2-33-11 22-28 36-60 37" id="bb"/><path d="M59-47c-2 24 18 29 38 22v24C64 9 27 4 27-40v-127H5v-23h24l9-43h21v43h35v23H59v120" id="bc"/><path d="M106-169C34-169 62-67 57 0H25v-261h32l-1 103c12-21 28-36 61-36 89 0 53 116 60 194h-32v-121c2-32-8-49-39-48" id="bd"/><path d="M100-194c63 0 86 42 84 106H49c0 40 14 67 53 68 26 1 43-12 49-29l28 8c-11 28-37 45-77 45C44 4 14-33 15-96c1-61 26-98 85-98zm52 81c6-60-76-77-97-28-3 7-6 17-6 28h103" id="be"/><path d="M117-194c89-4 53 116 60 194h-32v-121c0-31-8-49-39-48C34-167 62-67 57 0H25l-1-190h30c1 10-1 24 2 32 11-22 29-35 61-36" id="bf"/><path d="M24-231v-30h32v30H24zM24 0v-190h32V0H24" id="bg"/><path d="M101-234c-31-9-42 10-38 44h38v23H63V0H32v-167H5v-23h27c-7-52 17-82 69-68v24" id="bh"/><path d="M96-169c-40 0-48 33-48 73s9 75 48 75c24 0 41-14 43-38l32 2c-6 37-31 61-74 61-59 0-76-41-82-99-10-93 101-131 147-64 4 7 5 14 7 22l-32 3c-4-21-16-35-41-35" id="bi"/><path d="M141-36C126-15 110 5 73 4 37 3 15-17 15-53c-1-64 63-63 125-63 3-35-9-54-41-54-24 1-41 7-42 31l-33-3c5-37 33-52 76-52 45 0 72 20 72 64v82c-1 20 7 32 28 27v20c-31 9-61-2-59-35zM48-53c0 20 12 33 32 33 41-3 63-29 60-74-43 2-92-5-92 41" id="bj"/><path d="M100-194c62-1 85 37 85 99 1 63-27 99-86 99S16-35 15-95c0-66 28-99 85-99zM99-20c44 1 53-31 53-75 0-43-8-75-51-75s-53 32-53 75 10 74 51 75" id="bk"/><g id="s"><use transform="matrix(0.05,0,0,0.05,0,0)" xlink:href="#ba"/><use transform="matrix(0.05,0,0,0.05,12,0)" xlink:href="#bb"/><use transform="matrix(0.05,0,0,0.05,22,0)" xlink:href="#bc"/><use transform="matrix(0.05,0,0,0.05,27,0)" xlink:href="#bd"/><use transform="matrix(0.05,0,0,0.05,37,0)" xlink:href="#be"/><use transform="matrix(0.05,0,0,0.05,47,0)" xlink:href="#bf"/><use transform="matrix(0.05,0,0,0.05,57,0)" xlink:href="#bc"/><use transform="matrix(0.05,0,0,0.05,62,0)" xlink:href="#bg"/><use transform="matrix(0.05,0,0,0.05,65.95,0)" xlink:href="#bh"/><use transform="matrix(0.05,0,0,0.05,70.95,0)" xlink:href="#bg"/><use transform="matrix(0.05,0,0,0.05,74.9,0)" xlink:href="#bi"/><use transform="matrix(0.05,0,0,0.05,83.9,0)" xlink:href="#bj"/><use transform="matrix(0.05,0,0,0.05,93.9,0)" xlink:href="#bc"/><use transform="matrix(0.05,0,0,0.05,98.9,0)" xlink:href="#bg"/><use transform="matrix(0.05,0,0,0.05,102.85000000000001,0)" xlink:href="#bk"/><use transform="matrix(0.05,0,0,0.05,112.85000000000001,0)" xlink:href="#bf"/></g><path d="M143 4C61 4 22-44 18-125c-5-107 100-154 193-111 17 8 29 25 37 43l-32 9c-13-25-37-40-76-40-61 0-88 39-88 99 0 61 29 100 91 101 35 0 62-11 79-27v-45h-74v-28h105v86C228-13 192 4 143 4" id="bl"/><path d="M135-143c-3-34-86-38-87 0 15 53 115 12 119 90S17 21 10-45l28-5c4 36 97 45 98 0-10-56-113-15-118-90-4-57 82-63 122-42 12 7 21 19 24 35" id="bm"/><g id="v"><use transform="matrix(0.05432111111111112,0,0,0.05432111111111112,0,0)" xlink:href="#bl"/><use transform="matrix(0.05432111111111112,0,0,0.05432111111111112,15.209911111111113,0)" xlink:href="#be"/><use transform="matrix(0.05432111111111112,0,0,0.05432111111111112,26.074133333333336,0)" xlink:href="#bm"/><use transform="matrix(0.05432111111111112,0,0,0.05432111111111112,35.851933333333335,0)" xlink:href="#bc"/><use transform="matrix(0.05432111111111112,0,0,0.05432111111111112,41.28404444444445,0)" xlink:href="#bg"/><use transform="matrix(0.05432111111111112,0,0,0.05432111111111112,45.575412222222226,0)" xlink:href="#bk"/><use transform="matrix(0.05432111111111112,0,0,0.05432111111111112,56.43963444444445,0)" xlink:href="#bf"/></g><path d="M85-194c31 0 48 13 60 33l-1-100h32l1 261h-30c-2-10 0-23-3-31C134-8 116 4 85 4 32 4 16-35 15-94c0-66 23-100 70-100zm9 24c-40 0-46 34-46 75 0 40 6 74 45 74 42 0 51-32 51-76 0-42-9-74-50-73" id="bn"/><g id="w"><use transform="matrix(0.05432111111111112,0,0,0.05432111111111112,0,0)" xlink:href="#bn"/><use transform="matrix(0.05432111111111112,0,0,0.05432111111111112,10.864222222222224,0)" xlink:href="#be"/><use transform="matrix(0.05432111111111112,0,0,0.05432111111111112,21.72844444444445,0)" xlink:href="#bm"/></g><path d="M210-169c-67 3-38 105-44 169h-31v-121c0-29-5-50-35-48C34-165 62-65 56 0H25l-1-190h30c1 10-1 24 2 32 10-44 99-50 107 0 11-21 27-35 58-36 85-2 47 119 55 194h-31v-121c0-29-5-49-35-48" id="bo"/><path d="M115-194c55 1 70 41 70 98S169 2 115 4C84 4 66-9 55-30l1 105H24l-1-265h31l2 30c10-21 28-34 59-34zm-8 174c40 0 45-34 45-75s-6-73-45-74c-42 0-51 32-51 76 0 43 10 73 51 73" id="bp"/><path d="M24 0v-261h32V0H24" id="bq"/><path d="M179-190L93 31C79 59 56 82 12 73V49c39 6 53-20 64-50L1-190h34L92-34l54-156h33" id="br"/><path d="M100-194c63 0 86 42 84 106H49c0 40 14 67 53 68 26 1 43-12 49-29l28 8c-11 28-37 45-77 45C44 4 14-33 15-96c1-61 26-98 85-98zm52 81c6-60-76-77-97-28-3 7-6 17-6 28h103zm-74-98c8-23 27-35 38-54h36v5l-58 49H78" id="bs"/><g id="x"><use transform="matrix(0.05432111111111112,0,0,0.05432111111111112,0,0)" xlink:href="#be"/><use transform="matrix(0.05432111111111112,0,0,0.05432111111111112,10.864222222222224,0)" xlink:href="#bo"/><use transform="matrix(0.05432111111111112,0,0,0.05432111111111112,27.10623444444445,0)" xlink:href="#bp"/><use transform="matrix(0.05432111111111112,0,0,0.05432111111111112,37.97045666666668,0)" xlink:href="#bq"/><use transform="matrix(0.05432111111111112,0,0,0.05432111111111112,42.26182444444446,0)" xlink:href="#bk"/><use transform="matrix(0.05432111111111112,0,0,0.05432111111111112,53.12604666666668,0)" xlink:href="#br"/><use transform="matrix(0.05432111111111112,0,0,0.05432111111111112,62.903846666666674,0)" xlink:href="#bs"/><use transform="matrix(0.05432111111111112,0,0,0.05432111111111112,73.7680688888889,0)" xlink:href="#bm"/></g><path d="M185-189c-5-48-123-54-124 2 14 75 158 14 163 119 3 78-121 87-175 55-17-10-28-26-33-46l33-7c5 56 141 63 141-1 0-78-155-14-162-118-5-82 145-84 179-34 5 7 8 16 11 25" id="bt"/><path d="M100-194c63 0 86 42 84 106H49c0 40 14 67 53 68 26 1 43-12 49-29l28 8c-11 28-37 45-77 45C44 4 14-33 15-96c1-61 26-98 85-98zm52 81c6-60-76-77-97-28-3 7-6 17-6 28h103zm-36-98l-58-49v-5h36c12 19 30 32 38 54h-16" id="bu"/><g id="y"><use transform="matrix(0.05432111111111112,0,0,0.05432111111111112,0,0)" xlink:href="#bt"/><use transform="matrix(0.05432111111111112,0,0,0.05432111111111112,13.037066666666668,0)" xlink:href="#br"/><use transform="matrix(0.05432111111111112,0,0,0.05432111111111112,22.814866666666667,0)" xlink:href="#bf"/><use transform="matrix(0.05432111111111112,0,0,0.05432111111111112,33.67908888888889,0)" xlink:href="#bc"/><use transform="matrix(0.05432111111111112,0,0,0.05432111111111112,39.111200000000004,0)" xlink:href="#bd"/><use transform="matrix(0.05432111111111112,0,0,0.05432111111111112,49.97542222222223,0)" xlink:href="#bu"/><use transform="matrix(0.05432111111111112,0,0,0.05432111111111112,60.83964444444445,0)" xlink:href="#bm"/><use transform="matrix(0.05432111111111112,0,0,0.05432111111111112,70.61744444444446,0)" xlink:href="#be"/></g><path d="M114-163C36-179 61-72 57 0H25l-1-190h30c1 12-1 29 2 39 6-27 23-49 58-41v29" id="bv"/><g id="z"><use transform="matrix(0.05432111111111112,0,0,0.05432111111111112,0,0)" xlink:href="#bv"/><use transform="matrix(0.05432111111111112,0,0,0.05432111111111112,6.464212222222223,0)" xlink:href="#bj"/><use transform="matrix(0.05432111111111112,0,0,0.05432111111111112,17.328434444444447,0)" xlink:href="#bp"/><use transform="matrix(0.05432111111111112,0,0,0.05432111111111112,28.19265666666667,0)" xlink:href="#bp"/><use transform="matrix(0.05432111111111112,0,0,0.05432111111111112,39.056878888888896,0)" xlink:href="#bk"/><use transform="matrix(0.05432111111111112,0,0,0.05432111111111112,49.92110111111112,0)" xlink:href="#bv"/><use transform="matrix(0.05432111111111112,0,0,0.05432111111111112,56.38531333333334,0)" xlink:href="#bc"/><use transform="matrix(0.05432111111111112,0,0,0.05432111111111112,61.817424444444455,0)" xlink:href="#bm"/></g><g id="A"><use transform="matrix(0.05432111111111112,0,0,0.05432111111111112,0,0)" xlink:href="#bn"/><use transform="matrix(0.05432111111111112,0,0,0.05432111111111112,10.864222222222224,0)" xlink:href="#be"/></g><g id="B"><use transform="matrix(0.05432111111111112,0,0,0.05432111111111112,0,0)" xlink:href="#bq"/><use transform="matrix(0.05432111111111112,0,0,0.05432111111111112,4.291367777777778,0)" xlink:href="#bj"/></g><g id="C"><use transform="matrix(0.05432111111111112,0,0,0.05432111111111112,0,0)" xlink:href="#bn"/><use transform="matrix(0.05432111111111112,0,0,0.05432111111111112,10.864222222222224,0)" xlink:href="#bg"/><use transform="matrix(0.05432111111111112,0,0,0.05432111111111112,15.155590000000005,0)" xlink:href="#bm"/><use transform="matrix(0.05432111111111112,0,0,0.05432111111111112,24.933390000000003,0)" xlink:href="#bi"/><use transform="matrix(0.05432111111111112,0,0,0.05432111111111112,34.71119,0)" xlink:href="#bg"/><use transform="matrix(0.05432111111111112,0,0,0.05432111111111112,39.00255777777778,0)" xlink:href="#bp"/><use transform="matrix(0.05432111111111112,0,0,0.05432111111111112,49.866780000000006,0)" xlink:href="#bq"/><use transform="matrix(0.05432111111111112,0,0,0.05432111111111112,54.158147777777785,0)" xlink:href="#bg"/><use transform="matrix(0.05432111111111112,0,0,0.05432111111111112,58.449515555555564,0)" xlink:href="#bf"/><use transform="matrix(0.05432111111111112,0,0,0.05432111111111112,69.31373777777779,0)" xlink:href="#be"/></g><path d="M140-251c81 0 123 46 123 126C263-46 219 4 140 4 59 4 17-45 17-125s42-126 123-126zm0 227c63 0 89-41 89-101s-29-99-89-99c-61 0-89 39-89 99S79-25 140-24" id="bw"/><path d="M177-190C167-65 218 103 67 71c-23-6-38-20-44-43l32-5c15 47 100 32 89-28v-30C133-14 115 1 83 1 29 1 15-40 15-95c0-56 16-97 71-98 29-1 48 16 59 35 1-10 0-23 2-32h30zM94-22c36 0 50-32 50-73 0-42-14-75-50-75-39 0-46 34-46 75s6 73 46 73" id="bx"/><g id="D"><use transform="matrix(0.05432111111111112,0,0,0.05432111111111112,0,0)" xlink:href="#bw"/><use transform="matrix(0.05432111111111112,0,0,0.05432111111111112,15.209911111111113,0)" xlink:href="#bv"/><use transform="matrix(0.05432111111111112,0,0,0.05432111111111112,21.674123333333334,0)" xlink:href="#bx"/><use transform="matrix(0.05432111111111112,0,0,0.05432111111111112,32.53834555555556,0)" xlink:href="#bj"/><use transform="matrix(0.05432111111111112,0,0,0.05432111111111112,43.40256777777778,0)" xlink:href="#bf"/><use transform="matrix(0.05432111111111112,0,0,0.05432111111111112,54.26679000000001,0)" xlink:href="#bg"/><use transform="matrix(0.05432111111111112,0,0,0.05432111111111112,58.55815777777779,0)" xlink:href="#bm"/><use transform="matrix(0.05432111111111112,0,0,0.05432111111111112,68.3359577777778,0)" xlink:href="#be"/><use transform="matrix(0.05432111111111112,0,0,0.05432111111111112,79.20018000000002,0)" xlink:href="#bv"/></g><g id="E"><use transform="matrix(0.05432111111111112,0,0,0.05432111111111112,0,0)" xlink:href="#bn"/><use transform="matrix(0.05432111111111112,0,0,0.05432111111111112,10.864222222222224,0)" xlink:href="#be"/><use transform="matrix(0.05432111111111112,0,0,0.05432111111111112,21.72844444444445,0)" xlink:href="#bm"/></g><g id="F"><use transform="matrix(0.05432111111111112,0,0,0.05432111111111112,0,0)" xlink:href="#bh"/><use transform="matrix(0.05432111111111112,0,0,0.05432111111111112,5.432111111111112,0)" xlink:href="#bk"/><use transform="matrix(0.05432111111111112,0,0,0.05432111111111112,16.296333333333337,0)" xlink:href="#bv"/><use transform="matrix(0.05432111111111112,0,0,0.05432111111111112,22.76054555555556,0)" xlink:href="#bo"/><use transform="matrix(0.05432111111111112,0,0,0.05432111111111112,39.00255777777778,0)" xlink:href="#bj"/><use transform="matrix(0.05432111111111112,0,0,0.05432111111111112,49.866780000000006,0)" xlink:href="#bc"/><use transform="matrix(0.05432111111111112,0,0,0.05432111111111112,55.29889111111112,0)" xlink:href="#bg"/><use transform="matrix(0.05432111111111112,0,0,0.05432111111111112,59.5902588888889,0)" xlink:href="#bk"/><use transform="matrix(0.05432111111111112,0,0,0.05432111111111112,70.45448111111112,0)" xlink:href="#bf"/><use transform="matrix(0.05432111111111112,0,0,0.05432111111111112,81.31870333333335,0)" xlink:href="#bm"/></g><g id="H"><use transform="matrix(0.05432111111111112,0,0,0.05432111111111112,0,0)" xlink:href="#bi"/><use transform="matrix(0.05432111111111112,0,0,0.05432111111111112,9.777800000000001,0)" xlink:href="#bj"/><use transform="matrix(0.05432111111111112,0,0,0.05432111111111112,20.642022222222224,0)" xlink:href="#bf"/><use transform="matrix(0.05432111111111112,0,0,0.05432111111111112,31.506244444444448,0)" xlink:href="#bn"/><use transform="matrix(0.05432111111111112,0,0,0.05432111111111112,42.37046666666667,0)" xlink:href="#bg"/><use transform="matrix(0.05432111111111112,0,0,0.05432111111111112,46.66183444444445,0)" xlink:href="#bn"/><use transform="matrix(0.05432111111111112,0,0,0.05432111111111112,57.526056666666676,0)" xlink:href="#bj"/><use transform="matrix(0.05432111111111112,0,0,0.05432111111111112,68.3902788888889,0)" xlink:href="#bc"/><use transform="matrix(0.05432111111111112,0,0,0.05432111111111112,73.82239000000001,0)" xlink:href="#bb"/><use transform="matrix(0.05432111111111112,0,0,0.05432111111111112,84.68661222222224,0)" xlink:href="#bv"/><use transform="matrix(0.05432111111111112,0,0,0.05432111111111112,91.15082444444445,0)" xlink:href="#be"/><use transform="matrix(0.05432111111111112,0,0,0.05432111111111112,102.01504666666668,0)" xlink:href="#bm"/></g><g id="I"><use transform="matrix(0.05432111111111112,0,0,0.05432111111111112,0,0)" xlink:href="#bi"/><use transform="matrix(0.05432111111111112,0,0,0.05432111111111112,9.777800000000001,0)" xlink:href="#bk"/><use transform="matrix(0.05432111111111112,0,0,0.05432111111111112,20.642022222222224,0)" xlink:href="#bf"/><use transform="matrix(0.05432111111111112,0,0,0.05432111111111112,31.506244444444448,0)" xlink:href="#bc"/><use transform="matrix(0.05432111111111112,0,0,0.05432111111111112,36.93835555555556,0)" xlink:href="#bv"/><use transform="matrix(0.05432111111111112,0,0,0.05432111111111112,43.40256777777778,0)" xlink:href="#bj"/><use transform="matrix(0.05432111111111112,0,0,0.05432111111111112,54.26679000000001,0)" xlink:href="#bc"/><use transform="matrix(0.05432111111111112,0,0,0.05432111111111112,59.69890111111112,0)" xlink:href="#bm"/></g><path d="M108 0H70L1-190h34L89-25l56-165h34" id="by"/><g id="J"><use transform="matrix(0.05432111111111112,0,0,0.05432111111111112,0,0)" xlink:href="#bc"/><use transform="matrix(0.05432111111111112,0,0,0.05432111111111112,5.432111111111112,0)" xlink:href="#bv"/><use transform="matrix(0.05432111111111112,0,0,0.05432111111111112,11.896323333333335,0)" xlink:href="#bj"/><use transform="matrix(0.05432111111111112,0,0,0.05432111111111112,22.76054555555556,0)" xlink:href="#by"/><use transform="matrix(0.05432111111111112,0,0,0.05432111111111112,32.53834555555556,0)" xlink:href="#bj"/><use transform="matrix(0.05432111111111112,0,0,0.05432111111111112,43.40256777777778,0)" xlink:href="#bg"/><use transform="matrix(0.05432111111111112,0,0,0.05432111111111112,47.69393555555556,0)" xlink:href="#bq"/><use transform="matrix(0.05432111111111112,0,0,0.05432111111111112,51.98530333333334,0)" xlink:href="#bm"/></g><path d="M30 0v-248h187v28H63v79h144v27H63v87h162V0H30" id="bz"/><g id="K"><use transform="matrix(0.05432111111111112,0,0,0.05432111111111112,0,0)" xlink:href="#bz"/><use transform="matrix(0.05432111111111112,0,0,0.05432111111111112,13.037066666666668,0)" xlink:href="#bc"/><use transform="matrix(0.05432111111111112,0,0,0.05432111111111112,18.46917777777778,0)" xlink:href="#bb"/><use transform="matrix(0.05432111111111112,0,0,0.05432111111111112,29.333400000000005,0)" xlink:href="#bn"/><use transform="matrix(0.05432111111111112,0,0,0.05432111111111112,40.19762222222223,0)" xlink:href="#be"/></g><g id="L"><use transform="matrix(0.05432111111111112,0,0,0.05432111111111112,0,0)" xlink:href="#bi"/><use transform="matrix(0.05432111111111112,0,0,0.05432111111111112,9.777800000000001,0)" xlink:href="#bk"/><use transform="matrix(0.05432111111111112,0,0,0.05432111111111112,20.642022222222224,0)" xlink:href="#bf"/><use transform="matrix(0.05432111111111112,0,0,0.05432111111111112,31.506244444444448,0)" xlink:href="#bx"/><use transform="matrix(0.05432111111111112,0,0,0.05432111111111112,42.37046666666667,0)" xlink:href="#bs"/><use transform="matrix(0.05432111111111112,0,0,0.05432111111111112,53.2346888888889,0)" xlink:href="#bm"/></g><path d="M63-220v92h138v28H63V0H30v-248h175v28H63" id="bA"/><g id="M"><use transform="matrix(0.05432111111111112,0,0,0.05432111111111112,0,0)" xlink:href="#bA"/><use transform="matrix(0.05432111111111112,0,0,0.05432111111111112,11.896323333333335,0)" xlink:href="#bk"/><use transform="matrix(0.05432111111111112,0,0,0.05432111111111112,22.76054555555556,0)" xlink:href="#bb"/><use transform="matrix(0.05432111111111112,0,0,0.05432111111111112,33.624767777777784,0)" xlink:href="#bv"/><use transform="matrix(0.05432111111111112,0,0,0.05432111111111112,40.08898000000001,0)" xlink:href="#bf"/><use transform="matrix(0.05432111111111112,0,0,0.05432111111111112,50.95320222222223,0)" xlink:href="#bg"/><use transform="matrix(0.05432111111111112,0,0,0.05432111111111112,55.24457000000001,0)" xlink:href="#bc"/><use transform="matrix(0.05432111111111112,0,0,0.05432111111111112,60.67668111111112,0)" xlink:href="#bb"/><use transform="matrix(0.05432111111111112,0,0,0.05432111111111112,71.54090333333335,0)" xlink:href="#bv"/><use transform="matrix(0.05432111111111112,0,0,0.05432111111111112,78.00511555555556,0)" xlink:href="#be"/></g><path d="M30-248c118-7 216 8 213 122C240-48 200 0 122 0H30v-248zM63-27c89 8 146-16 146-99s-60-101-146-95v194" id="bB"/><path d="M33 0v-38h34V0H33" id="bC"/><g id="N"><use transform="matrix(0.05432111111111112,0,0,0.05432111111111112,0,0)" xlink:href="#bB"/><use transform="matrix(0.05432111111111112,0,0,0.05432111111111112,14.06916777777778,0)" xlink:href="#bk"/><use transform="matrix(0.05432111111111112,0,0,0.05432111111111112,24.933390000000003,0)" xlink:href="#bi"/><use transform="matrix(0.05432111111111112,0,0,0.05432111111111112,34.71119,0)" xlink:href="#bm"/><use transform="matrix(0.05432111111111112,0,0,0.05432111111111112,44.48899,0)" xlink:href="#bC"/></g><g id="O"><use transform="matrix(0.05432111111111112,0,0,0.05432111111111112,0,0)" xlink:href="#ba"/><use transform="matrix(0.05432111111111112,0,0,0.05432111111111112,13.037066666666668,0)" xlink:href="#bn"/><use transform="matrix(0.05432111111111112,0,0,0.05432111111111112,23.901288888888892,0)" xlink:href="#bo"/><use transform="matrix(0.05432111111111112,0,0,0.05432111111111112,40.143301111111114,0)" xlink:href="#bC"/></g><path d="M30-248c87 1 191-15 191 75 0 78-77 80-158 76V0H30v-248zm33 125c57 0 124 11 124-50 0-59-68-47-124-48v98" id="bD"/><path d="M115-194c53 0 69 39 70 98 0 66-23 100-70 100C84 3 66-7 56-30L54 0H23l1-261h32v101c10-23 28-34 59-34zm-8 174c40 0 45-34 45-75 0-40-5-75-45-74-42 0-51 32-51 76 0 43 10 73 51 73" id="bE"/><g id="P"><use transform="matrix(0.05432111111111112,0,0,0.05432111111111112,0,0)" xlink:href="#bD"/><use transform="matrix(0.05432111111111112,0,0,0.05432111111111112,13.037066666666668,0)" xlink:href="#bb"/><use transform="matrix(0.05432111111111112,0,0,0.05432111111111112,23.901288888888892,0)" xlink:href="#bE"/><use transform="matrix(0.05432111111111112,0,0,0.05432111111111112,34.76551111111112,0)" xlink:href="#bq"/><use transform="matrix(0.05432111111111112,0,0,0.05432111111111112,39.056878888888896,0)" xlink:href="#bg"/><use transform="matrix(0.05432111111111112,0,0,0.05432111111111112,43.348246666666675,0)" xlink:href="#bi"/><use transform="matrix(0.05432111111111112,0,0,0.05432111111111112,53.126046666666674,0)" xlink:href="#bj"/><use transform="matrix(0.05432111111111112,0,0,0.05432111111111112,63.9902688888889,0)" xlink:href="#bc"/><use transform="matrix(0.05432111111111112,0,0,0.05432111111111112,69.42238,0)" xlink:href="#bg"/><use transform="matrix(0.05432111111111112,0,0,0.05432111111111112,73.71374777777778,0)" xlink:href="#bk"/><use transform="matrix(0.05432111111111112,0,0,0.05432111111111112,84.57797000000001,0)" xlink:href="#bf"/></g><path d="M240 0l2-218c-23 76-54 145-80 218h-23L58-218 59 0H30v-248h44l77 211c21-75 51-140 76-211h43V0h-30" id="bF"/><path d="M153-248C145-148 188 4 80 4 36 3 13-21 6-62l32-5c4 25 16 42 43 43 27 0 39-20 39-49v-147H72v-28h81" id="bG"/><g id="Q"><use transform="matrix(0.05432111111111112,0,0,0.05432111111111112,0,0)" xlink:href="#bF"/><use transform="matrix(0.05432111111111112,0,0,0.05432111111111112,16.242012222222225,0)" xlink:href="#ba"/><use transform="matrix(0.05432111111111112,0,0,0.05432111111111112,29.279078888888893,0)" xlink:href="#bG"/></g><path d="M233-177c-1 41-23 64-60 70L243 0h-38l-65-103H63V0H30v-248c88 3 205-21 203 71zM63-129c60-2 137 13 137-47 0-61-80-42-137-45v92" id="bH"/><g id="R"><use transform="matrix(0.05432111111111112,0,0,0.05432111111111112,0,0)" xlink:href="#bH"/><use transform="matrix(0.05432111111111112,0,0,0.05432111111111112,14.06916777777778,0)" xlink:href="#bs"/><use transform="matrix(0.05432111111111112,0,0,0.05432111111111112,24.933390000000003,0)" xlink:href="#bi"/><use transform="matrix(0.05432111111111112,0,0,0.05432111111111112,34.71119,0)" xlink:href="#be"/><use transform="matrix(0.05432111111111112,0,0,0.05432111111111112,45.575412222222226,0)" xlink:href="#bp"/><use transform="matrix(0.05432111111111112,0,0,0.05432111111111112,56.43963444444445,0)" xlink:href="#bc"/><use transform="matrix(0.05432111111111112,0,0,0.05432111111111112,61.87174555555556,0)" xlink:href="#bg"/><use transform="matrix(0.05432111111111112,0,0,0.05432111111111112,66.16311333333334,0)" xlink:href="#bk"/><use transform="matrix(0.05432111111111112,0,0,0.05432111111111112,77.02733555555557,0)" xlink:href="#bf"/></g><g id="S"><use transform="matrix(0.05432111111111112,0,0,0.05432111111111112,0,0)" xlink:href="#bv"/><use transform="matrix(0.05432111111111112,0,0,0.05432111111111112,6.464212222222223,0)" xlink:href="#bj"/><use transform="matrix(0.05432111111111112,0,0,0.05432111111111112,17.328434444444447,0)" xlink:href="#bp"/><use transform="matrix(0.05432111111111112,0,0,0.05432111111111112,28.19265666666667,0)" xlink:href="#bp"/><use transform="matrix(0.05432111111111112,0,0,0.05432111111111112,39.056878888888896,0)" xlink:href="#bk"/><use transform="matrix(0.05432111111111112,0,0,0.05432111111111112,49.92110111111112,0)" xlink:href="#bv"/><use transform="matrix(0.05432111111111112,0,0,0.05432111111111112,56.38531333333334,0)" xlink:href="#bc"/><use transform="matrix(0.05432111111111112,0,0,0.05432111111111112,61.817424444444455,0)" xlink:href="#bm"/></g><g id="T"><use transform="matrix(0.05432111111111112,0,0,0.05432111111111112,0,0)" xlink:href="#bi"/><use transform="matrix(0.05432111111111112,0,0,0.05432111111111112,9.777800000000001,0)" xlink:href="#bk"/><use transform="matrix(0.05432111111111112,0,0,0.05432111111111112,20.642022222222224,0)" xlink:href="#bf"/><use transform="matrix(0.05432111111111112,0,0,0.05432111111111112,31.506244444444448,0)" xlink:href="#bx"/><use transform="matrix(0.05432111111111112,0,0,0.05432111111111112,42.37046666666667,0)" xlink:href="#bs"/><use transform="matrix(0.05432111111111112,0,0,0.05432111111111112,53.2346888888889,0)" xlink:href="#bm"/></g><g id="U"><use transform="matrix(0.05432111111111112,0,0,0.05432111111111112,0,0)" xlink:href="#bt"/><use transform="matrix(0.05432111111111112,0,0,0.05432111111111112,13.037066666666668,0)" xlink:href="#bk"/><use transform="matrix(0.05432111111111112,0,0,0.05432111111111112,23.901288888888892,0)" xlink:href="#bb"/><use transform="matrix(0.05432111111111112,0,0,0.05432111111111112,34.76551111111112,0)" xlink:href="#bo"/><use transform="matrix(0.05432111111111112,0,0,0.05432111111111112,51.00752333333334,0)" xlink:href="#bg"/><use transform="matrix(0.05432111111111112,0,0,0.05432111111111112,55.29889111111112,0)" xlink:href="#bm"/><use transform="matrix(0.05432111111111112,0,0,0.05432111111111112,65.07669111111112,0)" xlink:href="#bm"/><use transform="matrix(0.05432111111111112,0,0,0.05432111111111112,74.85449111111112,0)" xlink:href="#bg"/><use transform="matrix(0.05432111111111112,0,0,0.05432111111111112,79.1458588888889,0)" xlink:href="#bk"/><use transform="matrix(0.05432111111111112,0,0,0.05432111111111112,90.01008111111112,0)" xlink:href="#bf"/></g><g id="V"><use transform="matrix(0.05432111111111112,0,0,0.05432111111111112,0,0)" xlink:href="#bi"/><use transform="matrix(0.05432111111111112,0,0,0.05432111111111112,9.777800000000001,0)" xlink:href="#bj"/><use transform="matrix(0.05432111111111112,0,0,0.05432111111111112,20.642022222222224,0)" xlink:href="#bf"/><use transform="matrix(0.05432111111111112,0,0,0.05432111111111112,31.506244444444448,0)" xlink:href="#bn"/><use transform="matrix(0.05432111111111112,0,0,0.05432111111111112,42.37046666666667,0)" xlink:href="#bg"/><use transform="matrix(0.05432111111111112,0,0,0.05432111111111112,46.66183444444445,0)" xlink:href="#bn"/><use transform="matrix(0.05432111111111112,0,0,0.05432111111111112,57.526056666666676,0)" xlink:href="#bj"/><use transform="matrix(0.05432111111111112,0,0,0.05432111111111112,68.3902788888889,0)" xlink:href="#bc"/><use transform="matrix(0.05432111111111112,0,0,0.05432111111111112,73.82239000000001,0)" xlink:href="#bb"/><use transform="matrix(0.05432111111111112,0,0,0.05432111111111112,84.68661222222224,0)" xlink:href="#bv"/><use transform="matrix(0.05432111111111112,0,0,0.05432111111111112,91.15082444444445,0)" xlink:href="#be"/><use transform="matrix(0.05432111111111112,0,0,0.05432111111111112,102.01504666666668,0)" xlink:href="#bm"/></g><path d="M212-179c-10-28-35-45-73-45-59 0-87 40-87 99 0 60 29 101 89 101 43 0 62-24 78-52l27 14C228-24 195 4 139 4 59 4 22-46 18-125c-6-104 99-153 187-111 19 9 31 26 39 46" id="bI"/><g id="W"><use transform="matrix(0.05432111111111112,0,0,0.05432111111111112,0,0)" xlink:href="#bI"/><use transform="matrix(0.05432111111111112,0,0,0.05432111111111112,14.06916777777778,0)" xlink:href="#bk"/><use transform="matrix(0.05432111111111112,0,0,0.05432111111111112,24.933390000000003,0)" xlink:href="#bf"/><use transform="matrix(0.05432111111111112,0,0,0.05432111111111112,35.79761222222223,0)" xlink:href="#bm"/><use transform="matrix(0.05432111111111112,0,0,0.05432111111111112,45.575412222222226,0)" xlink:href="#bb"/><use transform="matrix(0.05432111111111112,0,0,0.05432111111111112,56.43963444444445,0)" xlink:href="#bq"/><use transform="matrix(0.05432111111111112,0,0,0.05432111111111112,60.73100222222223,0)" xlink:href="#bc"/><use transform="matrix(0.05432111111111112,0,0,0.05432111111111112,66.16311333333334,0)" xlink:href="#bj"/><use transform="matrix(0.05432111111111112,0,0,0.05432111111111112,77.02733555555557,0)" xlink:href="#bc"/><use transform="matrix(0.05432111111111112,0,0,0.05432111111111112,82.45944666666668,0)" xlink:href="#bg"/><use transform="matrix(0.05432111111111112,0,0,0.05432111111111112,86.75081444444446,0)" xlink:href="#bk"/><use transform="matrix(0.05432111111111112,0,0,0.05432111111111112,97.61503666666668,0)" xlink:href="#bf"/></g><g id="X"><use transform="matrix(0.05432111111111112,0,0,0.05432111111111112,0,0)" xlink:href="#bn"/><use transform="matrix(0.05432111111111112,0,0,0.05432111111111112,10.864222222222224,0)" xlink:href="#bb"/></g><g id="Y"><use transform="matrix(0.05432111111111112,0,0,0.05432111111111112,0,0)" xlink:href="#bp"/><use transform="matrix(0.05432111111111112,0,0,0.05432111111111112,10.864222222222224,0)" xlink:href="#bv"/><use transform="matrix(0.05432111111111112,0,0,0.05432111111111112,17.328434444444447,0)" xlink:href="#bk"/><use transform="matrix(0.05432111111111112,0,0,0.05432111111111112,28.19265666666667,0)" xlink:href="#bx"/><use transform="matrix(0.05432111111111112,0,0,0.05432111111111112,39.056878888888896,0)" xlink:href="#bv"/><use transform="matrix(0.05432111111111112,0,0,0.05432111111111112,45.52109111111112,0)" xlink:href="#bu"/><use transform="matrix(0.05432111111111112,0,0,0.05432111111111112,56.38531333333334,0)" xlink:href="#bm"/></g><g id="Z"><use transform="matrix(0.05432111111111112,0,0,0.05432111111111112,0,0)" xlink:href="#bt"/><use transform="matrix(0.05432111111111112,0,0,0.05432111111111112,13.037066666666668,0)" xlink:href="#bk"/><use transform="matrix(0.05432111111111112,0,0,0.05432111111111112,23.901288888888892,0)" xlink:href="#bb"/><use transform="matrix(0.05432111111111112,0,0,0.05432111111111112,34.76551111111112,0)" xlink:href="#bo"/><use transform="matrix(0.05432111111111112,0,0,0.05432111111111112,51.00752333333334,0)" xlink:href="#bg"/><use transform="matrix(0.05432111111111112,0,0,0.05432111111111112,55.29889111111112,0)" xlink:href="#bm"/><use transform="matrix(0.05432111111111112,0,0,0.05432111111111112,65.07669111111112,0)" xlink:href="#bm"/><use transform="matrix(0.05432111111111112,0,0,0.05432111111111112,74.85449111111112,0)" xlink:href="#bg"/><use transform="matrix(0.05432111111111112,0,0,0.05432111111111112,79.1458588888889,0)" xlink:href="#bk"/><use transform="matrix(0.05432111111111112,0,0,0.05432111111111112,90.01008111111112,0)" xlink:href="#bf"/></g><g id="aa"><use transform="matrix(0.05432111111111112,0,0,0.05432111111111112,0,0)" xlink:href="#bn"/><use transform="matrix(0.05432111111111112,0,0,0.05432111111111112,10.864222222222224,0)" xlink:href="#be"/><use transform="matrix(0.05432111111111112,0,0,0.05432111111111112,21.72844444444445,0)" xlink:href="#bo"/><use transform="matrix(0.05432111111111112,0,0,0.05432111111111112,37.97045666666668,0)" xlink:href="#bj"/><use transform="matrix(0.05432111111111112,0,0,0.05432111111111112,48.8346788888889,0)" xlink:href="#bf"/><use transform="matrix(0.05432111111111112,0,0,0.05432111111111112,59.698901111111134,0)" xlink:href="#bn"/><use transform="matrix(0.05432111111111112,0,0,0.05432111111111112,70.56312333333335,0)" xlink:href="#be"/><use transform="matrix(0.05432111111111112,0,0,0.05432111111111112,81.42734555555558,0)" xlink:href="#bm"/></g><g id="ab"><use transform="matrix(0.05432111111111112,0,0,0.05432111111111112,0,0)" xlink:href="#bn"/><use transform="matrix(0.05432111111111112,0,0,0.05432111111111112,10.864222222222224,0)" xlink:href="#bk"/><use transform="matrix(0.05432111111111112,0,0,0.05432111111111112,21.72844444444445,0)" xlink:href="#bi"/><use transform="matrix(0.05432111111111112,0,0,0.05432111111111112,31.506244444444448,0)" xlink:href="#bb"/><use transform="matrix(0.05432111111111112,0,0,0.05432111111111112,42.37046666666667,0)" xlink:href="#bo"/><use transform="matrix(0.05432111111111112,0,0,0.05432111111111112,58.612478888888894,0)" xlink:href="#be"/><use transform="matrix(0.05432111111111112,0,0,0.05432111111111112,69.47670111111113,0)" xlink:href="#bf"/><use transform="matrix(0.05432111111111112,0,0,0.05432111111111112,80.34092333333335,0)" xlink:href="#bc"/><use transform="matrix(0.05432111111111112,0,0,0.05432111111111112,85.77303444444446,0)" xlink:href="#bm"/></g><g id="ac"><use transform="matrix(0.05432111111111112,0,0,0.05432111111111112,0,0)" xlink:href="#bj"/><use transform="matrix(0.05432111111111112,0,0,0.05432111111111112,10.864222222222224,0)" xlink:href="#bn"/><use transform="matrix(0.05432111111111112,0,0,0.05432111111111112,21.72844444444445,0)" xlink:href="#bo"/><use transform="matrix(0.05432111111111112,0,0,0.05432111111111112,37.97045666666668,0)" xlink:href="#bg"/><use transform="matrix(0.05432111111111112,0,0,0.05432111111111112,42.26182444444446,0)" xlink:href="#bf"/><use transform="matrix(0.05432111111111112,0,0,0.05432111111111112,53.12604666666668,0)" xlink:href="#bg"/><use transform="matrix(0.05432111111111112,0,0,0.05432111111111112,57.41741444444447,0)" xlink:href="#bm"/><use transform="matrix(0.05432111111111112,0,0,0.05432111111111112,67.19521444444446,0)" xlink:href="#bc"/><use transform="matrix(0.05432111111111112,0,0,0.05432111111111112,72.62732555555557,0)" xlink:href="#bv"/><use transform="matrix(0.05432111111111112,0,0,0.05432111111111112,79.0915377777778,0)" xlink:href="#bj"/><use transform="matrix(0.05432111111111112,0,0,0.05432111111111112,89.95576000000003,0)" xlink:href="#bc"/><use transform="matrix(0.05432111111111112,0,0,0.05432111111111112,95.38787111111114,0)" xlink:href="#bg"/><use transform="matrix(0.05432111111111112,0,0,0.05432111111111112,99.67923888888892,0)" xlink:href="#by"/><use transform="matrix(0.05432111111111112,0,0,0.05432111111111112,109.45703888888892,0)" xlink:href="#be"/><use transform="matrix(0.05432111111111112,0,0,0.05432111111111112,120.32126111111116,0)" xlink:href="#bm"/></g><g id="ad"><use transform="matrix(0.05432111111111112,0,0,0.05432111111111112,0,0)" xlink:href="#bt"/><use transform="matrix(0.05432111111111112,0,0,0.05432111111111112,13.037066666666668,0)" xlink:href="#bk"/><use transform="matrix(0.05432111111111112,0,0,0.05432111111111112,23.901288888888892,0)" xlink:href="#bb"/><use transform="matrix(0.05432111111111112,0,0,0.05432111111111112,34.76551111111112,0)" xlink:href="#bo"/><use transform="matrix(0.05432111111111112,0,0,0.05432111111111112,51.00752333333334,0)" xlink:href="#bg"/><use transform="matrix(0.05432111111111112,0,0,0.05432111111111112,55.29889111111112,0)" xlink:href="#bm"/><use transform="matrix(0.05432111111111112,0,0,0.05432111111111112,65.07669111111112,0)" xlink:href="#bm"/><use transform="matrix(0.05432111111111112,0,0,0.05432111111111112,74.85449111111112,0)" xlink:href="#bg"/><use transform="matrix(0.05432111111111112,0,0,0.05432111111111112,79.1458588888889,0)" xlink:href="#bk"/><use transform="matrix(0.05432111111111112,0,0,0.05432111111111112,90.01008111111112,0)" xlink:href="#bf"/></g><g id="ae"><use transform="matrix(0.05432111111111112,0,0,0.05432111111111112,0,0)" xlink:href="#bp"/><use transform="matrix(0.05432111111111112,0,0,0.05432111111111112,10.864222222222224,0)" xlink:href="#bv"/><use transform="matrix(0.05432111111111112,0,0,0.05432111111111112,17.328434444444447,0)" xlink:href="#bk"/><use transform="matrix(0.05432111111111112,0,0,0.05432111111111112,28.19265666666667,0)" xlink:href="#bE"/><use transform="matrix(0.05432111111111112,0,0,0.05432111111111112,39.056878888888896,0)" xlink:href="#bq"/><use transform="matrix(0.05432111111111112,0,0,0.05432111111111112,43.348246666666675,0)" xlink:href="#bu"/><use transform="matrix(0.05432111111111112,0,0,0.05432111111111112,54.2124688888889,0)" xlink:href="#bo"/><use transform="matrix(0.05432111111111112,0,0,0.05432111111111112,70.45448111111112,0)" xlink:href="#be"/><use transform="matrix(0.05432111111111112,0,0,0.05432111111111112,81.31870333333335,0)" xlink:href="#bm"/></g><g id="af"><use transform="matrix(0.05,0,0,0.05,0,0)" xlink:href="#bz"/><use transform="matrix(0.05,0,0,0.05,12,0)" xlink:href="#bf"/><use transform="matrix(0.05,0,0,0.05,22,0)" xlink:href="#bv"/><use transform="matrix(0.05,0,0,0.05,27.950000000000003,0)" xlink:href="#be"/><use transform="matrix(0.05,0,0,0.05,37.95,0)" xlink:href="#bx"/><use transform="matrix(0.05,0,0,0.05,47.95,0)" xlink:href="#bg"/><use transform="matrix(0.05,0,0,0.05,51.900000000000006,0)" xlink:href="#bm"/><use transform="matrix(0.05,0,0,0.05,60.900000000000006,0)" xlink:href="#bc"/><use transform="matrix(0.05,0,0,0.05,65.9,0)" xlink:href="#bv"/><use transform="matrix(0.05,0,0,0.05,71.85000000000001,0)" xlink:href="#be"/><use transform="matrix(0.05,0,0,0.05,81.85000000000001,0)" xlink:href="#bo"/><use transform="matrix(0.05,0,0,0.05,96.80000000000001,0)" xlink:href="#be"/><use transform="matrix(0.05,0,0,0.05,106.80000000000001,0)" xlink:href="#bf"/><use transform="matrix(0.05,0,0,0.05,116.80000000000001,0)" xlink:href="#bc"/></g><g id="ag"><use transform="matrix(0.05,0,0,0.05,0,0)" xlink:href="#bp"/><use transform="matrix(0.05,0,0,0.05,10,0)" xlink:href="#bk"/><use transform="matrix(0.05,0,0,0.05,20,0)" xlink:href="#bb"/><use transform="matrix(0.05,0,0,0.05,30,0)" xlink:href="#bv"/></g><g id="ah"><use transform="matrix(0.05,0,0,0.05,0,0)" xlink:href="#bh"/><use transform="matrix(0.05,0,0,0.05,5,0)" xlink:href="#bk"/><use transform="matrix(0.05,0,0,0.05,15,0)" xlink:href="#bv"/><use transform="matrix(0.05,0,0,0.05,20.95,0)" xlink:href="#bo"/><use transform="matrix(0.05,0,0,0.05,35.9,0)" xlink:href="#bj"/><use transform="matrix(0.05,0,0,0.05,45.9,0)" xlink:href="#bc"/><use transform="matrix(0.05,0,0,0.05,50.9,0)" xlink:href="#bg"/><use transform="matrix(0.05,0,0,0.05,54.85,0)" xlink:href="#bk"/><use transform="matrix(0.05,0,0,0.05,64.85,0)" xlink:href="#bf"/></g><g id="ai"><use transform="matrix(0.04320987654320988,0,0,0.04320987654320988,0,0)" xlink:href="#aF"/><use transform="matrix(0.04320987654320988,0,0,0.04320987654320988,3.4135802469135808,0)" xlink:href="#aG"/><use transform="matrix(0.04320987654320988,0,0,0.04320987654320988,12.055555555555557,0)" xlink:href="#aE"/><use transform="matrix(0.04320987654320988,0,0,0.04320987654320988,19.833333333333336,0)" xlink:href="#aJ"/><use transform="matrix(0.04320987654320988,0,0,0.04320987654320988,23.246913580246915,0)" xlink:href="#az"/><use transform="matrix(0.04320987654320988,0,0,0.04320987654320988,31.888888888888893,0)" xlink:href="#aL"/><use transform="matrix(0.04320987654320988,0,0,0.04320987654320988,40.53086419753087,0)" xlink:href="#aB"/></g><path fill="#666" d="M87 75C49 33 22-17 22-94c0-76 28-126 65-167h31c-38 41-64 92-64 168S80 34 118 75H87" id="bJ"/><g id="aj"><use transform="matrix(0.04320987654320988,0,0,0.04320987654320988,0,0)" xlink:href="#bJ"/><use transform="matrix(0.04320987654320988,0,0,0.04320987654320988,5.1419753086419755,0)" xlink:href="#aB"/><use transform="matrix(0.04320987654320988,0,0,0.04320987654320988,13.783950617283953,0)" xlink:href="#aG"/></g><g id="ak"><use transform="matrix(0.04320987654320988,0,0,0.04320987654320988,0,0)" xlink:href="#aE"/><use transform="matrix(0.04320987654320988,0,0,0.04320987654320988,7.777777777777779,0)" xlink:href="#aD"/><use transform="matrix(0.04320987654320988,0,0,0.04320987654320988,16.419753086419753,0)" xlink:href="#aC"/></g><g id="al"><use transform="matrix(0.04320987654320988,0,0,0.04320987654320988,0,0)" xlink:href="#aL"/><use transform="matrix(0.04320987654320988,0,0,0.04320987654320988,8.641975308641976,0)" xlink:href="#aO"/><use transform="matrix(0.04320987654320988,0,0,0.04320987654320988,11.580246913580249,0)" xlink:href="#az"/><use transform="matrix(0.04320987654320988,0,0,0.04320987654320988,20.222222222222225,0)" xlink:href="#aG"/></g><path fill="#666" d="M0 4l72-265h28L28 4H0" id="bK"/><path fill="#666" d="M33-261c38 41 65 92 65 168S71 34 33 75H2C39 34 66-17 66-93S39-220 2-261h31" id="bL"/><g id="am"><use transform="matrix(0.04320987654320988,0,0,0.04320987654320988,0,0)" xlink:href="#aE"/><use transform="matrix(0.04320987654320988,0,0,0.04320987654320988,7.777777777777779,0)" xlink:href="#aD"/><use transform="matrix(0.04320987654320988,0,0,0.04320987654320988,16.419753086419753,0)" xlink:href="#aG"/><use transform="matrix(0.04320987654320988,0,0,0.04320987654320988,25.061728395061728,0)" xlink:href="#aL"/><use transform="matrix(0.04320987654320988,0,0,0.04320987654320988,33.7037037037037,0)" xlink:href="#aF"/><use transform="matrix(0.04320987654320988,0,0,0.04320987654320988,37.117283950617285,0)" xlink:href="#aL"/><use transform="matrix(0.04320987654320988,0,0,0.04320987654320988,45.75925925925927,0)" xlink:href="#aD"/><use transform="matrix(0.04320987654320988,0,0,0.04320987654320988,54.40123456790123,0)" xlink:href="#aA"/><use transform="matrix(0.04320987654320988,0,0,0.04320987654320988,58.72222222222222,0)" xlink:href="#bK"/><use transform="matrix(0.04320987654320988,0,0,0.04320987654320988,63.04320987654321,0)" xlink:href="#aM"/><use transform="matrix(0.04320987654320988,0,0,0.04320987654320988,68.18518518518519,0)" xlink:href="#aN"/><use transform="matrix(0.04320987654320988,0,0,0.04320987654320988,76.82716049382717,0)" xlink:href="#aC"/><use transform="matrix(0.04320987654320988,0,0,0.04320987654320988,84.60493827160494,0)" xlink:href="#aF"/><use transform="matrix(0.04320987654320988,0,0,0.04320987654320988,88.01851851851852,0)" xlink:href="#aJ"/><use transform="matrix(0.04320987654320988,0,0,0.04320987654320988,91.4320987654321,0)" xlink:href="#aF"/><use transform="matrix(0.04320987654320988,0,0,0.04320987654320988,94.84567901234568,0)" xlink:href="#aD"/><use transform="matrix(0.04320987654320988,0,0,0.04320987654320988,103.48765432098766,0)" xlink:href="#aA"/><use transform="matrix(0.04320987654320988,0,0,0.04320987654320988,107.80864197530866,0)" xlink:href="#aF"/><use transform="matrix(0.04320987654320988,0,0,0.04320987654320988,111.22222222222223,0)" xlink:href="#ay"/><use transform="matrix(0.04320987654320988,0,0,0.04320987654320988,119.8641975308642,0)" xlink:href="#aG"/><use transform="matrix(0.04320987654320988,0,0,0.04320987654320988,128.50617283950618,0)" xlink:href="#bL"/></g><g id="an"><use transform="matrix(0.05,0,0,0.05,0,0)" xlink:href="#bF"/><use transform="matrix(0.05,0,0,0.05,14.950000000000001,0)" xlink:href="#bg"/><use transform="matrix(0.05,0,0,0.05,18.900000000000002,0)" xlink:href="#bm"/><use transform="matrix(0.05,0,0,0.05,27.900000000000002,0)" xlink:href="#be"/></g><use transform="matrix(0.05,0,0,0.05,0,0)" xlink:href="#bj" id="ao"/><path d="M24-231v-30h32v30H24zM-9 49c24 4 33-6 33-30v-209h32V24c2 40-23 58-65 49V49" id="bM"/><g id="ap"><use transform="matrix(0.05,0,0,0.05,0,0)" xlink:href="#bM"/><use transform="matrix(0.05,0,0,0.05,3.95,0)" xlink:href="#bk"/><use transform="matrix(0.05,0,0,0.05,13.949999999999998,0)" xlink:href="#bb"/><use transform="matrix(0.05,0,0,0.05,23.95,0)" xlink:href="#bv"/></g><g id="aq"><use transform="matrix(0.05,0,0,0.05,0,0)" xlink:href="#bn"/><use transform="matrix(0.05,0,0,0.05,10,0)" xlink:href="#be"/><use transform="matrix(0.05,0,0,0.05,20,0)" xlink:href="#bm"/></g><path d="M145-31C134-9 116 4 85 4 32 4 16-35 15-94c0-59 17-99 70-100 32-1 48 14 60 33 0-11-1-24 2-32h30l-1 268h-32zM93-21c41 0 51-33 51-76s-8-73-50-73c-40 0-46 35-46 75s5 74 45 74" id="bN"/><g id="ar"><use transform="matrix(0.05,0,0,0.05,0,0)" xlink:href="#bD"/><use transform="matrix(0.05,0,0,0.05,12,0)" xlink:href="#bk"/><use transform="matrix(0.05,0,0,0.05,22,0)" xlink:href="#bq"/><use transform="matrix(0.05,0,0,0.05,25.950000000000003,0)" xlink:href="#bg"/><use transform="matrix(0.05,0,0,0.05,29.899999999999995,0)" xlink:href="#bc"/><use transform="matrix(0.05,0,0,0.05,34.9,0)" xlink:href="#bg"/><use transform="matrix(0.05,0,0,0.05,38.85,0)" xlink:href="#bN"/><use transform="matrix(0.05,0,0,0.05,48.85,0)" xlink:href="#bb"/><use transform="matrix(0.05,0,0,0.05,58.85,0)" xlink:href="#be"/><use transform="matrix(0.05,0,0,0.05,68.85,0)" xlink:href="#bm"/></g><g id="as"><use transform="matrix(0.05,0,0,0.05,0,0)" xlink:href="#bA"/><use transform="matrix(0.05,0,0,0.05,10.950000000000001,0)" xlink:href="#bj"/><use transform="matrix(0.05,0,0,0.05,20.950000000000003,0)" xlink:href="#bg"/><use transform="matrix(0.05,0,0,0.05,24.900000000000002,0)" xlink:href="#bc"/><use transform="matrix(0.05,0,0,0.05,29.900000000000002,0)" xlink:href="#be"/></g><g id="at"><use transform="matrix(0.05,0,0,0.05,0,0)" xlink:href="#bv"/><use transform="matrix(0.05,0,0,0.05,5.95,0)" xlink:href="#be"/><use transform="matrix(0.05,0,0,0.05,15.949999999999998,0)" xlink:href="#bp"/><use transform="matrix(0.05,0,0,0.05,25.950000000000003,0)" xlink:href="#bv"/><use transform="matrix(0.05,0,0,0.05,31.899999999999995,0)" xlink:href="#bk"/><use transform="matrix(0.05,0,0,0.05,41.9,0)" xlink:href="#bi"/><use transform="matrix(0.05,0,0,0.05,50.9,0)" xlink:href="#bd"/><use transform="matrix(0.05,0,0,0.05,60.900000000000006,0)" xlink:href="#be"/><use transform="matrix(0.05,0,0,0.05,70.9,0)" xlink:href="#bm"/></g><g id="au"><use transform="matrix(0.05,0,0,0.05,0,0)" xlink:href="#ba"/><use transform="matrix(0.05,0,0,0.05,12,0)" xlink:href="#bf"/><use transform="matrix(0.05,0,0,0.05,22,0)" xlink:href="#bf"/><use transform="matrix(0.05,0,0,0.05,32,0)" xlink:href="#bk"/><use transform="matrix(0.05,0,0,0.05,42,0)" xlink:href="#bf"/><use transform="matrix(0.05,0,0,0.05,52,0)" xlink:href="#bi"/><use transform="matrix(0.05,0,0,0.05,61,0)" xlink:href="#be"/></g><g id="av"><use transform="matrix(0.05,0,0,0.05,0,0)" xlink:href="#bA"/><use transform="matrix(0.05,0,0,0.05,10.950000000000001,0)" xlink:href="#bk"/><use transform="matrix(0.05,0,0,0.05,20.950000000000003,0)" xlink:href="#bv"/><use transform="matrix(0.05,0,0,0.05,26.900000000000002,0)" xlink:href="#bo"/><use transform="matrix(0.05,0,0,0.05,41.85,0)" xlink:href="#bj"/><use transform="matrix(0.05,0,0,0.05,51.85,0)" xlink:href="#bc"/><use transform="matrix(0.05,0,0,0.05,56.85,0)" xlink:href="#bg"/><use transform="matrix(0.05,0,0,0.05,60.800000000000004,0)" xlink:href="#bk"/><use transform="matrix(0.05,0,0,0.05,70.80000000000001,0)" xlink:href="#bf"/></g><g id="aw"><use transform="matrix(0.04320987654320988,0,0,0.04320987654320988,0,0)" xlink:href="#aF"/><use transform="matrix(0.04320987654320988,0,0,0.04320987654320988,3.4135802469135808,0)" xlink:href="#aG"/><use transform="matrix(0.04320987654320988,0,0,0.04320987654320988,12.055555555555557,0)" xlink:href="#aE"/><use transform="matrix(0.04320987654320988,0,0,0.04320987654320988,19.833333333333336,0)" xlink:href="#aJ"/><use transform="matrix(0.04320987654320988,0,0,0.04320987654320988,23.246913580246915,0)" xlink:href="#az"/><use transform="matrix(0.04320987654320988,0,0,0.04320987654320988,31.888888888888893,0)" xlink:href="#aL"/><use transform="matrix(0.04320987654320988,0,0,0.04320987654320988,40.53086419753087,0)" xlink:href="#aB"/><use transform="matrix(0.04320987654320988,0,0,0.04320987654320988,49.17283950617284,0)" xlink:href="#aC"/></g></defs></g></svg>